<svg xmlns="http://www.w3.org/2000/svg" width="223" height="97.25"><defs><clipPath id="a"><path data-name="長方形 2052" fill="none" d="M0 0h222v77.578H0z"/></clipPath></defs><g data-name="グループ 1214"><g data-name="グループ 690" clip-path="url(#a)" fill="#bfa570"><path data-name="パス 8213" d="M20.6 20.911q0 5.931 5.947 8.963a24.717 24.717 0 0011.178 2.35 98.5 98.5 0 0012.418-1.236q11.782-14.649 16.81-19.532Q78.9.007 88.594 0q6.106 0 6.112 4.236 0 8.338-15.654 17.33-13.017 7.466-23.44 9.342Q47.274 41.765 43.321 45.2q-5.549 4.793-16.447 9.263a33.434 33.434 0 0012.334 2.154q7.866 0 17.13-5.389 2.234-1.394 4.707-2.873l.36.437-.242.517q-12.209 8.349-21.634 8.347a39.587 39.587 0 01-14.218-2.6q-13.014 2.6-17.288 2.6Q0 57.656 0 53.863q0-3.118 7.426-3.112A67.828 67.828 0 0125.4 53.743q12.291-3.953 24.029-21.721a62.95 62.95 0 01-11.378 1.2 26.693 26.693 0 01-12.054-2.509q-6.473-3.232-6.474-9.6 0-9.245 11.18-14.862Q38.205 2.513 50.029.679C52.956.232 54.661 0 55.136 0c1.064 0 1.622.162 1.673.477l-.517.6q-2.431.2-7.3.754A56.309 56.309 0 0031.1 7.252q-10.505 5.412-10.5 13.659m2.919 33.447a56.419 56.419 0 00-16.253-2.689q-6.229 0-6.229 2.251 0 1.431 2.674 2.183a14.3 14.3 0 003.912.512 55.435 55.435 0 0015.9-2.258M89 .92q-9.229 0-18.929 10.432-3.276 3.568-13.7 18.234 9.9-1.789 22.325-9Q93.663 11.921 93.667 4C93.667 1.941 92.1.92 89 .92"/><path data-name="パス 8214" d="M101.37 8.145c.879 0 1.315.415 1.315 1.243q0 1.188-2.936 3.55t-4.131 2.316l-.394-.365q4.946-6.739 6.146-6.744"/><path data-name="パス 8215" d="M66.248 53.278q0-4.626 6.112-8.805 5.623-3.871 10.5-3.868c2.693 0 4.033 1.03 4.033 3.079a5.526 5.526 0 01-.277 1.631c.666-.659 2.063-2.234 4.194-4.71h4.59q-3.517 3.834-7.028 7.669-5.667 6.35-5.749 7.268l.637.517q2.034.077 7.17-3.617t5.285-3.731l.483.6q-.041 1.36-6.055 4.751c-3.9 2.241-6.434 3.352-7.6 3.352-1.6 0-2.391-.847-2.391-2.549a6.845 6.845 0 01.32-2.079q-5.909 4.636-9.983 4.628-4.231 0-4.232-4.135m3.916 3.063q3.586 0 9.462-4.466c4.046-3.1 6.067-5.8 6.067-8.075q0-2.033-2.315-2.034-2.881 0-8.905 5.176t-6.026 7.961c0 .961.575 1.438 1.717 1.438"/><path data-name="パス 8216" d="M109.414 42.087l-.444-.361q-2.435-.044-12.935 7.863l-.436-.483.2-.4a55.935 55.935 0 016.59-4.948c3.25-2.079 5.651-3.115 7.225-3.115q2 0 2 2.117a9.206 9.206 0 01-1.6 4.55q8.42-6.674 12.456-6.668 2.2 0 2.194 2.587 0 3.1-4.033 7.346t-4.037 4.887c0 .346.241.518.718.518 1.921 0 4.675-1.212 8.284-3.63s5.465-3.65 5.573-3.676l.242.4q0 1.675-6.515 5.067-6.265 3.278-8.382 3.277c-1.648 0-2.477-.931-2.477-2.793q0-2.43 3.6-6.788 2.794-3 5.551-6.028l-.679-.2q-6.669 0-20.923 15.809h-4.511q6.066-7.188 12.339-15.327"/><path data-name="パス 8217" d="M153.164 40.605h4.59l-14.969 17.091a73.849 73.849 0 0014.052-8.985c.43-.075.644.051.644.4l-.041.363q-.6.879-5.79 4.313-4.835 3.154-6.549 4.033a33.14 33.14 0 00-3.993 1.951q-5.747 5.4-11.454 10.825-7.827 6.98-13.181 6.986-3.07 0-3.074-2.873 0-4.679 8.945-9.145 2.825-1.448 13.135-5.275l4.507-5.39q-4.152 2.6-7.227 2.6-3.868 0-3.864-4.192 0-4.585 6.145-8.779 5.629-3.919 10.423-3.918c2.931 0 4.257 1.273 3.99 3.838zm-36.69 35.973q4.737 0 10.036-5.428.45-.472 7.651-9.38-8.642 3.275-11.632 4.79-7.928 4.113-7.926 8.146a1.652 1.652 0 001.871 1.872m16.333-20.2q3.593 0 9.462-4.475 6.11-4.672 6.112-8.106 0-2.036-2.36-2.034-2.879 0-8.9 5.193t-6.033 7.984c0 .954.575 1.438 1.717 1.438"/><path data-name="パス 8218" d="M175.287 48.556l.4.633-.162.4q-10.891 7.873-15.05 7.872-5.231 0-5.226-4.04 0-4.309 5.468-8.7 5.232-4.186 9.622-4.192c1.679 0 2.511.694 2.511 2.079q0 2.4-3.831 4.229-3.551 1.523-7.108 3.078c-2.549 1.331-3.831 2.953-3.831 4.873 0 .951.6 1.435 1.8 1.435q3.794 0 9.564-3.838t5.847-3.824m-12.622-.569c5.992-1.964 8.985-3.759 8.985-5.349 0-.615-.293-.919-.878-.919q-3.075 0-8.107 6.268"/><path data-name="パス 8219" d="M192.253 48.671l.282.4q-.043 1.876-6.469 5.193c-4.066 2.1-6.882 3.149-8.421 3.149-1.678 0-2.516-.863-2.516-2.6a7.657 7.657 0 011.557-4.267c.131-.16 1.1-1.363 2.913-3.59-1.145.793-2.581 1.678-4.308 2.632l-.444-.517.242-.437q2.835-1.844 5.7-3.676a26.748 26.748 0 005.114-4.355q4-4.793 7.987-9.582a155.3 155.3 0 0113.175-13.858q7.9-7.015 12.14-7.019a2.579 2.579 0 011.976.9 2.966 2.966 0 01.817 2.056q0 4.15-5.953 9.1a94.816 94.816 0 01-12.131 8.064 100.983 100.983 0 00-9.589 6.033 82.982 82.982 0 00-8.14 8.663q-3.837 4.549-7.625 9.144a6.05 6.05 0 00-.878 1.438l.679.437q2.992.119 8.14-3.437 5.636-3.869 5.75-3.871m3.04-14.092q12.252-7.628 14.931-9.542 10.734-7.7 10.737-11.938a1.734 1.734 0 00-1.995-1.921q-4.549 0-12.9 9.583-2.438 2.76-10.777 13.818"/><path data-name="パス 8220" d="M190.341 53.278q0-4.626 6.106-8.805 5.634-3.871 10.5-3.868c2.682 0 4.032 1.03 4.032 3.079a5.779 5.779 0 01-.282 1.631c.666-.659 2.064-2.234 4.194-4.71h4.59q-3.515 3.834-7.026 7.669-5.67 6.35-5.75 7.268l.643.517q2.034.077 7.164-3.617t5.291-3.731l.477.6q-.034 1.36-6.054 4.751c-3.9 2.241-6.44 3.352-7.6 3.352q-2.39 0-2.392-2.549a6.776 6.776 0 01.321-2.079q-5.909 4.636-9.979 4.628-4.229 0-4.232-4.135m3.906 3.063q3.6 0 9.466-4.466c4.046-3.1 6.075-5.8 6.075-8.075 0-1.355-.777-2.034-2.323-2.034q-2.869 0-8.905 5.176t-6.026 7.961c0 .961.568 1.438 1.713 1.438"/></g><text transform="translate(0 95.25)" fill="#a28441" font-size="14" font-family="HiraginoSans-W3, Hiragino Sans"><tspan x="0" y="0">バラのマドレーヌのお店ランジェラ</tspan></text></g></svg>