<svg data-name="グループ 405" xmlns="http://www.w3.org/2000/svg" width="42.84" height="34.536"><defs><clipPath id="a"><path data-name="長方形 1967" fill="none" d="M0 0h42.84v34.536H0z"/></clipPath></defs><g data-name="グループ 404" clip-path="url(#a)" fill="#4d484a"><path data-name="パス 3592" d="M8.625 20.806l.244.041c.223.052.443.108.663.165s.432.113.654.163c.47.1.967.2 1.562.3l.3.051a22.057 22.057 0 002.649.337c.451.018.911.015 1.409-.005.437-.016.943-.039 1.431-.1a3.855 3.855 0 00.615-.128 5.971 5.971 0 00.634-.244 1.213 1.213 0 00.237-.134.5.5 0 00.162-.2.531.531 0 00.047-.185.512.512 0 00-.224-.47.62.62 0 00-.292-.106l-.052-.01-.078-.013-.076-.011c-.081-.015-.159-.028-.239-.044l-.049-.005c-.149-.044-.315-.086-.481-.132l-.258-.067-.115-.029c-.235-.063-.47-.125-.7-.2a9.378 9.378 0 01-.572-.194l-.211-.062a9.868 9.868 0 00-.514-.159l.435-.038c.335-.039.671-.08 1.01-.1h.019l.042-.005v.006l.189-.013h-.005.134c.135 0 .27-.009.4-.008.092 0 .185 0 .277.008s.181.009.273.006a.946.946 0 00.3-.044l.048.028a.879.879 0 00.583.1.816.816 0 00.305-.12 1.05 1.05 0 00.521.127.9.9 0 00-.265-.667 2.5 2.5 0 00-.287-.246c-.129-.1-.246-.194-.361-.28a5.752 5.752 0 00-1.353-.748 8.677 8.677 0 00-1.568-.415 8.553 8.553 0 00-1.486-.165 7.986 7.986 0 00-1.561.114l-.1.018c-.224.043-.448.082-.671.139q-.376.1-.748.215a6.837 6.837 0 00-1.376.642 9.976 9.976 0 00-1.237.862 4.242 4.242 0 00-.576.581l-.084.1a3.2 3.2 0 00-.367.486c-.022.038-.044.075-.063.116a.493.493 0 00-.044.162.452.452 0 00.109.333.685.685 0 00.405.192c.114.022.228.039.346.056m10.186-2l.023.023c.016.018.015.034 0 .059l-.014.016.014-.016a.047.047 0 00-.005-.057zm.557.362l.016.01.005-.005-.008.01-.019-.011m.176-.187a.12.12 0 01-.009.037.12.12 0 00.009-.037.3.3 0 00-.032-.173.3.3 0 01.032.173m-.219-.406a.881.881 0 00-.219-.127.6.6 0 00-.249-.044.6.6 0 01.249.044.881.881 0 01.219.127m-.8-.1a1.074 1.074 0 01.23-.061 1.074 1.074 0 00-.23.061c-.023.006-.046.019-.072.024.027-.005.049-.018.072-.024m-.025.044h.008l.025.019c.076.048.148.1.224.159-.076-.056-.146-.11-.221-.158l-.035-.024m.094.09a.191.191 0 00-.035-.019.191.191 0 01.035.019m-.273.03a.624.624 0 00-.08.123.2.2 0 00-.018.053.2.2 0 01.018-.053.624.624 0 01.08-.123m.143.521z"/><path data-name="パス 3593" d="M42.66 9.023a.682.682 0 00.18-.411.45.45 0 00-.137-.321.48.48 0 00-.138-.094c-.042-.019-.084-.032-.124-.047a3.245 3.245 0 00-.6-.125l-.126-.018a4.207 4.207 0 00-.815-.061 10.161 10.161 0 00-1.5.161 6.852 6.852 0 00-1.458.42c-.239.1-.475.213-.706.329-.205.1-.4.22-.6.335l-.084.049a8.019 8.019 0 00-1.252.938 8.591 8.591 0 00-1.013 1.1 8.511 8.511 0 00-.911 1.343 5.788 5.788 0 00-.529 1.452c-.03.142-.056.287-.089.448a2.6 2.6 0 00-.054.373.9.9 0 00.238.677 1.061 1.061 0 00.31-.438.843.843 0 00.309-.109.877.877 0 00.372-.462l.018-.053a.922.922 0 00.256-.163c.071-.058.137-.123.2-.185s.132-.128.2-.187c.1-.089.206-.172.311-.259l.1-.085h-.005l.149-.114h-.005l.035-.024v-.005l.014-.01c.27-.208.549-.4.828-.587l.353-.258c-.1.151-.192.3-.282.458l-.113.195c-.1.176-.2.352-.305.523-.127.205-.262.406-.4.608l-.068.1-.151.221c-.095.142-.194.284-.276.414l-.033.035c-.049.065-.1.125-.151.191l-.049.058-.052.061-.033.042a.623.623 0 00-.151.272.545.545 0 000 .267.538.538 0 00.139.235.567.567 0 00.157.108.494.494 0 00.253.044 1.28 1.28 0 00.267-.053 6.139 6.139 0 00.638-.233 3.746 3.746 0 00.548-.308c.409-.276.8-.591 1.145-.864.389-.313.737-.613 1.066-.921a21.909 21.909 0 001.777-1.995l.195-.234c.381-.468.691-.87.977-1.256.135-.185.261-.371.387-.552s.257-.376.392-.561l.158-.191a7.91 7.91 0 00.223-.268m-9.217 5.486c0 .019.01.035.033.046a.066.066 0 00.023 0 .066.066 0 01-.023 0c-.025-.011-.037-.024-.035-.047zm-.19.625h-.013.01a.047.047 0 01.005-.019l-.006.022m-.338-.2a.3.3 0 00.089.152.211.211 0 00.03.02.211.211 0 01-.03-.02.3.3 0 01-.089-.152m.068-.539a.591.591 0 01.161-.2.591.591 0 00-.161.2.945.945 0 00-.081.24.945.945 0 01.081-.24m.529-.39c-.023.013-.049.018-.071.029a1.109 1.109 0 00-.213.105 1.109 1.109 0 01.213-.105c.022-.011.048-.016.071-.029m-.025.076c-.025.086-.042.173-.063.266.022-.092.039-.182.065-.268l.008-.03v-.008l-.013.041m.014.051a.134.134 0 00-.013.038.134.134 0 01.013-.038m.353-.078a.189.189 0 01.048.028.219.219 0 00-.048-.028.632.632 0 00-.14-.041.632.632 0 01.14.041m.094.447z"/><path data-name="パス 3594" d="M21.213 13.94c.182.137.371.272.564.39a3.392 3.392 0 00.666.291 5.141 5.141 0 001.575.232 7.657 7.657 0 001.216-.072 6.8 6.8 0 001.681-.394 18.045 18.045 0 001.787-.856 7.829 7.829 0 001.261-.81 10.361 10.361 0 001.367-1.3 5.36 5.36 0 00.962-1.533 5.67 5.67 0 00.424-1.835 2.817 2.817 0 00-.082-.728 1.151 1.151 0 00-.095-.318 5.114 5.114 0 00-.443-.875 1.613 1.613 0 00-1.034-.776 2.361 2.361 0 00-.28-.019.706.706 0 00-.3.057.815.815 0 00-.42.367 1.577 1.577 0 00-.173.878c.008.152 0 .3 0 .458a6.287 6.287 0 01-.249 1.071 6.383 6.383 0 01-.433.837 10.594 10.594 0 01-1.315 1.387 11.819 11.819 0 01-2.076 1.314c-.34.144-.689.266-1.037.394a6.45 6.45 0 01-.992.277 5.388 5.388 0 01-1.049.063 4.171 4.171 0 01-.783-.2 5.081 5.081 0 01-.632-.318.189.189 0 00-.08-.084c-.272-.091-.508.148-.644.348a1.061 1.061 0 00-.082.935 2.023 2.023 0 00.692.821"/><path data-name="パス 3595" d="M13.928 11.079c.019.192.058.384.09.576a.247.247 0 00-.009-.047 4.905 4.905 0 00.185.758 4.8 4.8 0 00.332.775c.122.22.248.44.375.659a4.716 4.716 0 00.533.751 2.786 2.786 0 00.543.476 4.653 4.653 0 00.749.475 2.677 2.677 0 00.666.223 2.757 2.757 0 00.595.068 1.089 1.089 0 00.818-.316 1.541 1.541 0 00.127-.18.836.836 0 00.1-.424.976.976 0 00-.041-.229.963.963 0 00-.254-.39 3.314 3.314 0 00-.338-.233c-.038-.021-.108-.056-.163-.084-.171-.09-.353-.167-.527-.251a5.946 5.946 0 01-.428-.254 4.548 4.548 0 01-.691-.623c-.133-.158-.248-.328-.368-.492a5.165 5.165 0 01-.334-.524c-.105-.191-.192-.392-.295-.585s-.232-.4-.334-.6a5.042 5.042 0 01-.214-.61c-.041-.156-.087-.314-.118-.471a2.173 2.173 0 00-.065-.37c-.032-.1-.075-.191-.109-.287.022-.072.047-.146.071-.218a2.2 2.2 0 01.211-.39c-.013.015-.022.032-.034.047a1.286 1.286 0 00.232-.632l-.006-.006a1.121 1.121 0 00-.381.185 1.473 1.473 0 00-.316.357 2.387 2.387 0 00-.173.291 2.936 2.936 0 00-.18.439c-.046.134-.086.263-.129.394a3.345 3.345 0 00-.081.43c-.025.152-.041.3-.056.459a3.259 3.259 0 000 .43c0 .142 0 .285.019.43"/><path data-name="パス 3596" d="M26.332 5.519s-.011.008-.019.008l-.008.008a.165.165 0 01.027-.015"/><path data-name="パス 3597" d="M21.008 10.164a1.264 1.264 0 00.405.185 3.964 3.964 0 00.947.106 5.258 5.258 0 00.973-.128 6.081 6.081 0 00.8-.177 4.212 4.212 0 00.935-.416 3.639 3.639 0 00.821-.7 6.077 6.077 0 00.644-.837 3.59 3.59 0 00.405-.875 3.844 3.844 0 00.1-.405 1.615 1.615 0 000-.829.99.99 0 00-.31-.482.553.553 0 00-.272-.128.111.111 0 00-.1.02.99.99 0 00-.156-.153h-.009a1.079 1.079 0 00-.067.163l-.057.17a1.131 1.131 0 00-.194.167 1.843 1.843 0 00-.348.681 6.12 6.12 0 01-.133.316 2.12 2.12 0 01-.2.352 6.473 6.473 0 01-.913 1.043 3.733 3.733 0 01-.473.308c-.243.1-.489.189-.734.272a7.156 7.156 0 01-.837.224 3.284 3.284 0 01-.6.034 1.8 1.8 0 01-.224-.053.483.483 0 00-.253-.052.549.549 0 00-.485.3.646.646 0 00-.042.435c.034.2.228.343.386.453m5.35-4.667h-.008.008m-.046.03c.008 0 .015-.009.019-.009l-.015.009-.011.008h-.008a.394.394 0 00-.038.015l.046-.022m-2.553 4.599a.382.382 0 01.061-.027c-.049.024-.095.042-.144.065.027-.01.053-.027.084-.038"/><path data-name="パス 3598" d="M17.169 8.594a5.564 5.564 0 00.186.534 5.22 5.22 0 00.173.575 3.516 3.516 0 00.216.508 2.614 2.614 0 00.234.352 1.673 1.673 0 00.511.458.815.815 0 00.708.122.755.755 0 00.409-.34c.023-.057.042-.11.065-.171a.7.7 0 00-.015-.363 1.142 1.142 0 00-.295-.47c-.114-.139-.211-.284-.314-.432a4.741 4.741 0 01-.378-.692 5.065 5.065 0 01-.3-.935 4.034 4.034 0 01-.011-.829 2.6 2.6 0 01.087-.378 3.849 3.849 0 01.251-.447 3.791 3.791 0 01.378-.481 7.09 7.09 0 01.432-.435 3.889 3.889 0 00.367-.306 1.419 1.419 0 00.306-.534.575.575 0 00.038-.159.428.428 0 000-.208c-.027-.042-.14-.072-.186-.087a1.031 1.031 0 00-.265-.042.561.561 0 00-.08 0 1.5 1.5 0 00-.428.068 2.663 2.663 0 00-.519.28 3.717 3.717 0 00-.787.6 4.666 4.666 0 00-.647.852 2.71 2.71 0 00-.363 1.211 4.38 4.38 0 00.022.825 5.894 5.894 0 00.2.932"/><path data-name="パス 3599" d="M21.656 6.746a.967.967 0 00.523.122 1.457 1.457 0 00.59-.19 2.061 2.061 0 00.454-.34 2.738 2.738 0 00.334-.352 5.8 5.8 0 00.468-.652 1.36 1.36 0 00.213-.723.841.841 0 00-.128-.424 1.859 1.859 0 00-.144-.175 1.772 1.772 0 00-.182-.128.661.661 0 00-.371-.095 1.659 1.659 0 00-.284.027 1.312 1.312 0 00-.342.139 1.783 1.783 0 00-.352.251 3.975 3.975 0 00-.776.715 1.89 1.89 0 00-.144.228 1.623 1.623 0 00-.208.321.95.95 0 00.348 1.276"/><path data-name="パス 3600" d="M21.966 1.299h-.014.006c.042.008.084.011.129.015a2.507 2.507 0 00.477 0 2.263 2.263 0 01.481 0 5.708 5.708 0 01.882.215q.442.142.886.3a6.889 6.889 0 011.332.708 5.043 5.043 0 01.758.694 1.822 1.822 0 00.738.647 1.113 1.113 0 00.81.087.441.441 0 01-.068.015.589.589 0 00.421-.519 1.554 1.554 0 00-.308-1.147 5.754 5.754 0 00-.553-.663 4.8 4.8 0 00-.738-.6 5.014 5.014 0 00-.777-.415 6.407 6.407 0 00-1.127-.384c-.34-.071-.7-.109-1.04-.162-.167-.023-.329-.053-.5-.068a2.962 2.962 0 00-.36-.023 2.414 2.414 0 00-.287.015 1.919 1.919 0 00-1.22.458 1.148 1.148 0 00-.276.458c-.015.038-.076.268-.027.291a1.034 1.034 0 00.375.08m.084 0h-.027a.048.048 0 01-.023 0h.015-.03H22a.217.217 0 00.049 0"/><path data-name="パス 3601" d="M21.966 16.06a2.1 2.1 0 00-.508-.076 1.309 1.309 0 00-.508.144v.011c.061.084.118.17.175.257a1.2 1.2 0 00.344.375 1.6 1.6 0 00.443.216 2.379 2.379 0 00.492.08.234.234 0 00.049 0 4.876 4.876 0 01.609.116 4.19 4.19 0 00.675.144 2.607 2.607 0 001-.03c.2-.034.39-.084.583-.122.223-.034.446-.056.673-.071a4.864 4.864 0 00.934-.137 4.955 4.955 0 001.64-.9c.253-.19.489-.409.727-.621a8.8 8.8 0 00.6-.575c.219-.224.451-.439.658-.678.08-.094.156-.192.232-.291a1.631 1.631 0 00.276-.454.99.99 0 00-.015-.662v-.008a2.335 2.335 0 00-.5.352c-.148.128-.276.287-.42.424a7.89 7.89 0 01-.485.443 10.61 10.61 0 01-1.943 1.23 5.262 5.262 0 01-1.038.356c-.352.042-.711.03-1.063.076a5.513 5.513 0 00-.823.156c-.189.048-.371.1-.552.147a5.493 5.493 0 01-.9-.011 3.83 3.83 0 00-.511 0c-.178.015-.348.049-.523.08a2.226 2.226 0 01-.318.027"/><path data-name="パス 3602" d="M5.307 29.05c1.07-1.449.852-3.265-1.07-3.631-1.591-.452-2.936 1.24-3.13 2.834-.225 4.656 3.85 4.746 7.175 3.279 5.083-2.22 8.478-7.135 12.844-10.544 4.527-3.535 11.989-5.136 16.679-.994 3.826 3.738 3.654 11.094-1.394 13.634-3.723 1.852-10.531 1.066-10.28-4.248.168-4.1 4.207-6.435 7.685-4.221a1.152 1.152 0 01-1.12 2.012c-2.974-2.076-5.527 1.7-3.841 4.141.758.956 2.677 1.214 4.321 1.1 5.764-.228 6.917-7.569 3.367-11.138-2.343-2.345-6.43-2.333-9.766-1.464-3.438.937-6.2 3.455-8.859 6.054-3.643 3.468-7.992 7.7-13.487 7.713-4.163.148-5.874-5.58-3.021-8.252a3.281 3.281 0 015.423 1.215 3.87 3.87 0 01-.775 3.012.454.454 0 11-.752-.508"/></g></svg>