<svg data-name="グループ 1011" xmlns="http://www.w3.org/2000/svg" width="132.571" height="124.493"><defs><clipPath id="a"><path data-name="長方形 737" fill="#000" d="M0 0h132.571v124.493H0z"/></clipPath><clipPath id="b"><path data-name="長方形 736" fill="#000" d="M0 0h132.572v124.493H0z"/></clipPath><clipPath id="c"><path data-name="長方形 715" fill="#000" d="M0 0h43.886v43.579H0z"/></clipPath><clipPath id="d"><path data-name="長方形 716" fill="#000" d="M0 0h18.227v24.887H0z"/></clipPath><clipPath id="e"><path data-name="長方形 717" fill="#000" d="M0 0h.005v.003H0z"/></clipPath><clipPath id="f"><path data-name="長方形 718" fill="#000" d="M0 0h27.105v30.399H0z"/></clipPath><clipPath id="g"><path data-name="長方形 719" fill="#000" d="M0 0h10.479v11.945H0z"/></clipPath><clipPath id="h"><path data-name="長方形 720" fill="#000" d="M0 0h5.457v11.901H0z"/></clipPath><clipPath id="i"><path data-name="長方形 721" fill="#000" d="M0 0h17.286v19.418H0z"/></clipPath><clipPath id="j"><path data-name="長方形 722" fill="#000" d="M0 0h20.726v19.834H0z"/></clipPath><clipPath id="k"><path data-name="長方形 723" fill="#000" d="M0 0h.183v.01H0z"/></clipPath><clipPath id="l"><path data-name="長方形 724" fill="#000" d="M0 0h19.5v10.17H0z"/></clipPath><clipPath id="m"><path data-name="長方形 725" fill="#000" d="M0 0h10.982v17.644H0z"/></clipPath><clipPath id="n"><path data-name="長方形 726" fill="#000" d="M0 0h18.372v22.648H0z"/></clipPath><clipPath id="o"><path data-name="長方形 727" fill="#000" d="M0 0h56.486v20.737H0z"/></clipPath><clipPath id="p"><path data-name="長方形 728" fill="#000" d="M0 0h41.45v27.446H0z"/></clipPath><clipPath id="q"><path data-name="長方形 729" fill="#000" d="M0 0h45.269v27.491H0z"/></clipPath><clipPath id="r"><path data-name="長方形 730" fill="#000" d="M0 0h.014v.016H0z"/></clipPath><clipPath id="s"><path data-name="長方形 731" fill="#000" d="M0 0h.198v.211H0z"/></clipPath><clipPath id="t"><path data-name="長方形 732" fill="#000" d="M0 0h.195v.206H0z"/></clipPath><clipPath id="u"><path data-name="長方形 733" fill="#000" d="M0 0h.006v.005H0z"/></clipPath><clipPath id="v"><path data-name="長方形 734" fill="#000" d="M0 0h.088v.093H0z"/></clipPath><clipPath id="w"><path data-name="長方形 735" fill="#000" d="M0 0h.122v.132H0z"/></clipPath></defs><g data-name="グループ 359"><g data-name="グループ 358" clip-path="url(#a)"><g data-name="グループ 357" clip-path="url(#b)"><g data-name="グループ 296"><g data-name="グループ 295"><g data-name="グループ 294" clip-path="url(#c)" transform="translate(52.632 13.619)" opacity=".99"><path data-name="パス 1210" d="M30.835 16.661c-.3.48-.611.95-.926 1.423q-.58.593-1.154 1.19c-1.2 1.245-2.383 2.5-3.611 3.725q-1.386 1.376-2.776 2.747c-.64.444-1.292.87-1.942 1.3-1.8 1.115-3.611 2.222-5.481 3.231a32.968 32.968 0 01-3.082 1.522c-.956.4-1.927.757-2.91 1.091-1.566.472-3.158.816-4.766 1.138-.369.074-.74.145-1.109.226a4.862 4.862 0 00-1.945.871 3.359 3.359 0 00-.978 1.372 2.248 2.248 0 00-.151.952 3.6 3.6 0 00.143 1.006 4.273 4.273 0 001.006 1.677 6.465 6.465 0 001.474 1.133 21.716 21.716 0 002.848 1.3c.419.154.859.267 1.289.379a17.244 17.244 0 001.781.372 22.383 22.383 0 002.806.263c.412.014.822-.019 1.232-.04a14.181 14.181 0 001.773-.166 20.542 20.542 0 005.706-1.83 23.383 23.383 0 002.07-1.186c.058-.005.115-.006.17-.013a14.2 14.2 0 004.193-1.157 22.154 22.154 0 003.457-1.962 17.253 17.253 0 002.221-1.775c.753-.7 1.486-1.4 2.217-2.13a53.266 53.266 0 004.114-4.686c.284-.361.537-.74.807-1.111.241-.336.5-.68.7-1.036.321-.539.659-1.07.937-1.627l.686-1.359a18.812 18.812 0 00.933-2.412 22.716 22.716 0 00.669-2.575c.179-.851.327-1.7.461-2.562.073-.462.085-.934.133-1.4a20.715 20.715 0 00-.041-3.377 26.556 26.556 0 00-.937-4.956 31.783 31.783 0 00-.726-2.261 26.964 26.964 0 00-.579-1.528 5.861 5.861 0 00-.926-1.7 2.222 2.222 0 00-.93-.607 2.347 2.347 0 00-.579-.114 2.4 2.4 0 00-.6.032 3.477 3.477 0 00-1 .418A1.393 1.393 0 0037.2.268a1.176 1.176 0 00-.379-.115.325.325 0 00-.279.1 1.935 1.935 0 00-.388.784 2.692 2.692 0 00-.051.875 14.726 14.726 0 01-.453 3.151c-.2.837-.412 1.666-.632 2.5-.231.856-.552 1.684-.859 2.514a36.447 36.447 0 01-2.089 4.468c-.4.715-.81 1.42-1.241 2.121" fill="#000"/></g></g></g><g data-name="グループ 299"><g data-name="グループ 298"><g data-name="グループ 297" clip-path="url(#d)" transform="translate(33.184 15.336)" opacity=".99"><path data-name="パス 1211" d="M.433 10.667q.321 1.1.729 2.167c.138.572.352 1.134.537 1.691a18.761 18.761 0 001.563 3.484 14.742 14.742 0 001.113 1.658q.237.343.488.676a7.515 7.515 0 001.458 1.35 3.7 3.7 0 00.656.4 10.073 10.073 0 003.055 2.119 6.287 6.287 0 003.216.473 6.03 6.03 0 00.753.1 4.233 4.233 0 00.719-.031 9.261 9.261 0 001.4.136 1.878 1.878 0 001.732-.72 1.207 1.207 0 00.1-1.283c-.074-.109-.143-.225-.223-.327l.022-.056a3.319 3.319 0 00.166-.942 3.43 3.43 0 00-.08-.906c.041-.083.091-.163.128-.25a4.187 4.187 0 00.25-1.156 4.121 4.121 0 00-.105-1.113c-.042-.237-.087-.47-.135-.708a14.292 14.292 0 00-1.025-3 24.343 24.343 0 00-1.229-2.494c-.055-.1-.11-.2-.168-.3a22.633 22.633 0 00-.487-1.1 31.436 31.436 0 00-3.124-5.008c-.238-.327-.521-.626-.778-.935a15.883 15.883 0 00-1.363-1.443 14.368 14.368 0 00-.925-.784 1.7 1.7 0 00-.484-.3c-.082-.1-.168-.212-.253-.314A5.157 5.157 0 006.596.482 3.877 3.877 0 005.054.01a2.766 2.766 0 00-.9.078A3.659 3.659 0 002.2 1.483a4.953 4.953 0 00-.491.847A4 4 0 00.665 3.713a6.28 6.28 0 00-.515 1.69A9.8 9.8 0 00-.001 7.43a12.6 12.6 0 00.43 3.237" fill="#000"/></g></g></g><g data-name="グループ 302"><g data-name="グループ 301"><g data-name="グループ 300" clip-path="url(#e)" transform="translate(58.419 30.033)" opacity=".99"><path data-name="パス 1212" d="M.003 0h.005-.005" fill="#000"/></g></g></g><g data-name="グループ 305"><g data-name="グループ 304"><g data-name="グループ 303" clip-path="url(#f)" transform="translate(52.346 10.488)" opacity=".99"><path data-name="パス 1213" d="M6.74 19.875a5.526 5.526 0 00-.665-.33 2.848 2.848 0 00-1.438-.105 3.139 3.139 0 00-.726.243c-.1.055-.174.1-.249.148a3.856 3.856 0 00-.832-.2 2.667 2.667 0 00-2.369 1.08 2.4 2.4 0 00.177 3.049 4.988 4.988 0 00.929.726c.062.046.127.087.191.132.149.094.3.186.457.273a5.077 5.077 0 001.24 2.351 7.828 7.828 0 003.138 1.9c.12.042.247.081.375.119a2.087 2.087 0 001.147 1.006 3.535 3.535 0 002.551-.326c.35-.136.692-.293 1.035-.444.7-.308 1.382-.661 2.056-1.023q2.353-1.268 4.567-2.736a19.639 19.639 0 003.719-3.232 20.7 20.7 0 002.829-4.14c-.034.067-.07.131-.1.2.068-.123.134-.246.2-.371l-.009.022.012-.024c.081-.154.166-.309.249-.463l-.173.318a19.937 19.937 0 001.212-2.747 13.611 13.611 0 00.844-3.946 12.022 12.022 0 00-.577-3.973 17.767 17.767 0 00-1.168-3.006c-.87-1.65-1.969-3.468-3.877-4.154a3.063 3.063 0 00-.323-.087 4.952 4.952 0 00-.724-.124 5.367 5.367 0 00-.682.014 2.292 2.292 0 00-1.229.558 2.7 2.7 0 00-.87 1.689 2.568 2.568 0 00.519 1.821 34.38 34.38 0 01-.867 2.936 35.283 35.283 0 01-1.85 4.255 71.695 71.695 0 01-1.512 2.593 18.225 18.225 0 01-2.029 2.661 20.152 20.152 0 01-2.829 2.358 15.42 15.42 0 01-1.377.746c-.264.124-.536.241-.809.353-.053-.038-.1-.076-.156-.114" fill="#000"/></g></g></g><g data-name="グループ 308"><g data-name="グループ 307"><g data-name="グループ 306" clip-path="url(#g)" transform="translate(47.277 11.285)" opacity=".99"><path data-name="パス 1214" d="M8.235 11.798a3.073 3.073 0 001.786-1.146 2.726 2.726 0 00.412-2.074 5 5 0 00-1-1.959c-.112-.16-.233-.32-.356-.476a5.347 5.347 0 00-.417-1.884 8.4 8.4 0 00-1.462-2.234A7.138 7.138 0 005.773.805 8.29 8.29 0 004.646.24 5.985 5.985 0 003.66.013L3.587.005a3.634 3.634 0 00-.817.032 4.007 4.007 0 00-1.554.725 3.361 3.361 0 00-.975 1.373 3.579 3.579 0 00-.235 1.17A8.4 8.4 0 00.06 4.412a8.256 8.256 0 00.806 2.959 8.851 8.851 0 00.621 1.11c.287.423.569.846.9 1.243A6.368 6.368 0 004.11 11.15a5.652 5.652 0 004.129.643" fill="#000"/></g></g></g><g data-name="グループ 311"><g data-name="グループ 310"><g data-name="グループ 309" clip-path="url(#h)" transform="translate(60.684 12.19)" opacity=".99"><path data-name="パス 1215" d="M.673 11.735a1.8 1.8 0 001.736-.158 3.882 3.882 0 001.068-.91 4.258 4.258 0 00.556-1.059A17.636 17.636 0 005.342 5.7a7.274 7.274 0 00.06-2.213 7.268 7.268 0 00-.538-1.841 2.57 2.57 0 00-1.5-1.508 3.2 3.2 0 00-.665-.136.952.952 0 00-.861.3 2.157 2.157 0 00-.341.985 2.968 2.968 0 00.289 1.555 6.183 6.183 0 01.219 1.046 5.883 5.883 0 01-.092 1.045 17.736 17.736 0 01-1.394 3.4 3.329 3.329 0 00-.514 1.7 2.016 2.016 0 00.672 1.7" fill="#000"/></g></g></g><g data-name="グループ 314"><g data-name="グループ 313"><g data-name="グループ 312" clip-path="url(#i)" transform="translate(69.445 .83)" opacity=".99"><path data-name="パス 1216" d="M1.282 3.638a3.024 3.024 0 00.841.348c.169.038.339.077.508.119l.089.021a1.745 1.745 0 00.467 1.128 4.482 4.482 0 001.65.857c.575.237 1.152.471 1.712.729a17.262 17.262 0 012.369 1.495A15.423 15.423 0 019.95 9.554a8.921 8.921 0 01.684 1.331 17.791 17.791 0 01.419 2.311c.105.712.23 1.429.3 2.147.008.49-.03.98-.062 1.472a2.338 2.338 0 00.586 1.769l.064.062a1.9 1.9 0 00.5.476 1.846 1.846 0 00.891.3 1.875 1.875 0 00.618-.068 1.671 1.671 0 00.2-.028 3.775 3.775 0 002.615-2.586 9.119 9.119 0 00.517-3.01 9.479 9.479 0 00-.521-2.977 14.542 14.542 0 00-1.227-2.792 16.206 16.206 0 00-1.768-2.423 14.127 14.127 0 00-2.15-1.977A14.713 14.713 0 008.97 2.054 27.013 27.013 0 005.344.608a19.482 19.482 0 00-2.443-.58 1.685 1.685 0 00-.183-.023 3.157 3.157 0 00-1.521.334 2.3 2.3 0 00-1.1 1.095c-.4.834.481 1.822 1.182 2.2" fill="#000"/></g></g></g><g data-name="グループ 317"><g data-name="グループ 316"><g data-name="グループ 315" clip-path="url(#j)" transform="translate(25.208 32.208)" opacity=".99"><path data-name="パス 1217" d="M3.689 1.458C3.546.883 3.089.047 2.453.003h-.03A2.14 2.14 0 00.76.9a4.01 4.01 0 00-.665 2 8.661 8.661 0 00.377 4.028 14.158 14.158 0 00.765 1.832 14.208 14.208 0 00.78 1.286 25.655 25.655 0 002.157 2.814 21.789 21.789 0 005.147 4.322 33.807 33.807 0 003.288 1.8 8.245 8.245 0 003.285.848 4.03 4.03 0 002.757-.728 2.878 2.878 0 001.02-1.809 2.2 2.2 0 00-.1-1.014 2.17 2.17 0 00.53-1.209.271.271 0 000-.046 1.745 1.745 0 00.027-.312 1.994 1.994 0 00.564-1.776A2.87 2.87 0 0018.317 11c-.844-.214-1.73-.335-2.591-.484l-.111-.023c-.3-.168-.6-.337-.887-.517a27.9 27.9 0 01-2.436-1.754c.162.14.329.28.495.422l-.661-.565a27.03 27.03 0 01-2.71-2.733c-.772-.878-1.554-1.761-2.238-2.7l-.224-.322a3.292 3.292 0 00-.6-.554 3.114 3.114 0 00-.794-.431 2.208 2.208 0 00-.646-.148 2.564 2.564 0 00-1.016.155 1.267 1.267 0 00-.208.109" fill="#000"/></g></g></g><g data-name="グループ 320"><g data-name="グループ 319"><g data-name="グループ 318" clip-path="url(#k)" transform="translate(64.245 60.72)" opacity=".99"><path data-name="パス 1218" d="M.047.009C.092.009.139.003.184.001H.07A.422.422 0 010 .006a.292.292 0 00.047 0" fill="#000"/></g></g></g><g data-name="グループ 323"><g data-name="グループ 322"><g data-name="グループ 321" clip-path="url(#l)" transform="translate(42.482 .001)" opacity=".99"><path data-name="パス 1219" d="M.022 7.209a1.15 1.15 0 00.389.636 2.118 2.118 0 00.568 1.542c.146.126.3.25.444.376a2.383 2.383 0 001.151.384 2.265 2.265 0 001.708-.527 3.909 3.909 0 00.513-.556c.1-.14.188-.278.28-.416a17.969 17.969 0 012.831-2.3 11.822 11.822 0 011.78-.856 12.382 12.382 0 011.319-.241 18.459 18.459 0 011.881.077 2.533 2.533 0 00.925 1.143 3.528 3.528 0 003.7.1 3.314 3.314 0 001.571-1.65 3.247 3.247 0 00.127-1.787A1.738 1.738 0 0019.046 1a1.674 1.674 0 00-.359-.31h-.005a1.933 1.933 0 00-.832-.3 1.897 1.897 0 00-.203-.03 4.322 4.322 0 00-.46-.007c-.261.006-.521.023-.779.042h-.212a12.693 12.693 0 00-1.272-.254c-.323-.054-.66-.1-1-.123A3.93 3.93 0 0011.687.4c-.792.028-1.584.082-2.379.172-.359.044-.721.128-1.073.195-.338.068-.682.139-1.016.231a16.725 16.725 0 00-1.807.6A7.606 7.606 0 003.154 3.06c-.572.533-1.1 1.1-1.62 1.686A12.448 12.448 0 00.254 6.29a1.142 1.142 0 00-.177.3l-.009.017a1.08 1.08 0 00-.049.6" fill="#000"/></g></g></g><g data-name="グループ 326"><g data-name="グループ 325"><g data-name="グループ 324" clip-path="url(#m)" transform="translate(19.532 13.928)" opacity=".99"><path data-name="パス 1220" d="M1.404 17.219a2.6 2.6 0 002.478.2 2.443 2.443 0 00.933-.766 2.622 2.622 0 00.449-1.287c.091-.438.12-.889.176-1.332a20.68 20.68 0 01.295-1.786c.054-.24.112-.479.174-.719a.744.744 0 00.1.067 1.955 1.955 0 002.5-.743 3.987 3.987 0 00.775-2.31c.049-.493.13-.98.224-1.467.145-.562.315-1.115.507-1.669.114-.335.258-.661.4-.984a9.475 9.475 0 00.469-1.113 1.907 1.907 0 00-.376-1.9 2.234 2.234 0 00-1.3-.675 1 1 0 00-.619-.663 1.67 1.67 0 00-.346-.06 2.355 2.355 0 00-1.327.336 3.189 3.189 0 00-.991.853c-.161.209-.318.417-.48.624-.586.751-1.224 1.465-1.845 2.194A14.148 14.148 0 002.011 6.28 15.078 15.078 0 00.794 8.899a17.554 17.554 0 00-.683 3.09 10.04 10.04 0 00.041 3.187 3.025 3.025 0 001.256 2.049" fill="#000"/></g></g></g><g data-name="グループ 329"><g data-name="グループ 328"><g data-name="グループ 327" clip-path="url(#n)" transform="translate(14.151 35.857)" opacity=".99"><path data-name="パス 1221" d="M.236 7.479a15.476 15.476 0 001.461 3.39 31.437 31.437 0 001.716 3c.174.259.356.511.541.761a15.111 15.111 0 001.482 1.95 30.068 30.068 0 003.22 3.069c.082.082.164.169.246.252a9.33 9.33 0 002.58 1.832c.173.114.349.222.53.328a3.319 3.319 0 002.54.488 5.4 5.4 0 001.715-.026 2.563 2.563 0 002.1-2.258 2.68 2.68 0 00-1.273-2.409c-.293-.2-.6-.4-.883-.617a35.27 35.27 0 01-1.108-.866 41.83 41.83 0 01-3.931-4.032c-.606-.713-1.173-1.449-1.759-2.17-.552-.685-1.108-1.36-1.631-2.063A14.567 14.567 0 016.665 5.85c-.062-.2-.12-.4-.174-.61-.022-.087-.049-.176-.073-.259a19.268 19.268 0 01-.089-.737c-.035-.683-.07-1.369-.124-2.053A2.514 2.514 0 004.532.137 2.819 2.819 0 003.876.01a2.651 2.651 0 00-1.989.671 5.082 5.082 0 00-.906 1.087c-.183.311-.348.626-.5.948a5.717 5.717 0 00-.344 1.207 6.877 6.877 0 00-.134 1.553 8.932 8.932 0 00.233 2.007" fill="#000"/></g></g></g><g data-name="グループ 332"><g data-name="グループ 331"><g data-name="グループ 330" clip-path="url(#o)" transform="translate(38.371 48.784)" opacity=".99"><path data-name="パス 1222" d="M52.32 7.992a17.747 17.747 0 001.9-1.753 13.876 13.876 0 001.8-2.4 3.66 3.66 0 00.388-.942 3.257 3.257 0 00-.016-1.472 1.937 1.937 0 00-.921-1.3 1.064 1.064 0 00-.433-.122 2.3 2.3 0 00-1.267.384 3.54 3.54 0 00-1.344 1.476 12.887 12.887 0 01-.576 1.155c-.049.09-.107.175-.162.259-.06-.009-.123-.021-.185-.024a1.854 1.854 0 00-1.085.264 4.84 4.84 0 00-.772.617c-.154.137-.306.28-.464.414a12.945 12.945 0 01-1.137.848c-.906.547-1.83 1.064-2.737 1.608-1.085.644-2.134 1.338-3.194 2.022a17.813 17.813 0 01-3.069 1.431 32.318 32.318 0 01-6.27.917c-1.141.095-2.284.181-3.428.275-1.062.089-2.127.207-3.193.277a.43.43 0 00-.087.006h-.04l-.107.006c-.031 0-.065 0-.1.006h.049l-.151.009.222-.014a.32.32 0 01.035 0 29.941 29.941 0 01-5.892-.565q-1.071-.485-2.131-.994a43.394 43.394 0 01-2.152-1.148 3.62 3.62 0 00-1.62-.473v-.008a3.12 3.12 0 00-1.6-1.646 5.939 5.939 0 00-1.3-.445 5.482 5.482 0 00-1.022-.16c-.254-.018-.508-.021-.759-.018a4.608 4.608 0 00-.7.069 7.191 7.191 0 00-.894-.072 3.791 3.791 0 00-.8.095 3.046 3.046 0 00-.764.3.917.917 0 00-.158.1 2.736 2.736 0 00-2.139.132 1.864 1.864 0 00-.445.373 3.422 3.422 0 00-1.306-.426A2.159 2.159 0 00.127 8.398a4.267 4.267 0 00.1 2.221 10 10 0 00.518 1.907 7.335 7.335 0 001.567 2.347 14.913 14.913 0 002.258 1.974 12.769 12.769 0 002.84 1.492 21.2 21.2 0 002.74.752 51.334 51.334 0 006.339 1.15c2.029.218 4.061.33 6.1.418a58.642 58.642 0 006.408-.021 27.637 27.637 0 005.957-1.071 37.342 37.342 0 003.29-1.12 16.8 16.8 0 002.49-1.365c1.405-.865 2.747-1.835 4.08-2.795a35.2 35.2 0 003.538-2.847c.634-.594 1.258-1.2 1.861-1.834.717-.522 1.435-1.047 2.108-1.614M42.113 9.034a.152.152 0 00-.032.021l-.468.293c.168-.1.334-.212.5-.313m-16.445 2.923l.091-.006c-.042.005-.084.006-.124.009a.277.277 0 01.034 0m-.081 0c-.084.006-.165.01-.246.013a.085.085 0 01-.031 0c.095 0 .185-.009.277-.015" fill="#000"/></g></g></g><g data-name="グループ 335"><g data-name="グループ 334"><g data-name="グループ 333" clip-path="url(#p)" transform="translate(0 64.765)" opacity=".99"><path data-name="パス 1223" d="M35.841 16.318c.527-.5 1-.991 1.463-1.5a20.081 20.081 0 001.369-1.79 29.521 29.521 0 001.916-3.127 7.4 7.4 0 00.77-1.814 4.639 4.639 0 00.082-.559 1.64 1.64 0 00-.23-.993 1.657 1.657 0 00-.962-.672 2.013 2.013 0 00-.446-.08 3.677 3.677 0 00-.76.038 36.752 36.752 0 00-3.935.838l-.319.078c-1.254.317-2.556.68-3.869 1.078a46.707 46.707 0 00-7.691 3.371l-.453.235c-.683.355-1.366.71-2.062 1.041-.911.432-1.832.844-2.756 1.249l-.084.036.06-.013c-.376.154-.751.313-1.124.473l-.952.408.43-.452a52.434 52.434 0 012.563-2.638c1.281-1.22 2.633-2.409 3.944-3.558a222.73 222.73 0 001.842-1.628 61.457 61.457 0 012.537-2.167c.522-.4 1.091-.767 1.639-1.121.323-.207.644-.413.959-.629a3.371 3.371 0 00.423-.337 1.137 1.137 0 00.287-1.118 1.424 1.424 0 00-1.283-.916c-.116-.013-.229-.026-.344-.033a6.168 6.168 0 00-1.838.172 18.1 18.1 0 00-3.845 1.576 58.91 58.91 0 00-2.428 1.318 62.71 62.71 0 01-.934.525 23.97 23.97 0 00-2.94 1.468c-.622.353-1.224.76-1.808 1.156l-.318.214c-.611.412-1.271.9-2.076 1.531-.058.042-.105.081-.15.115a41.878 41.878 0 00-5.849 5.317 39.316 39.316 0 00-4.7 6.7A19.208 19.208 0 001.09 22a16.686 16.686 0 00-.756 2.143A9.428 9.428 0 000 26.021a1.444 1.444 0 00.481 1.045 1.5 1.5 0 00.914.377 1.41 1.41 0 00.208 0 2.792 2.792 0 00.533-.109l.223-.056c.817-.1 1.649-.139 2.455-.176.288-.014.575-.027.864-.044a46.364 46.364 0 003.779-.366c1.076-.149 2.149-.321 3.22-.491l.673-.105.156-.024c.707-.11 1.442-.225 2.152-.385s1.388-.335 2.081-.516q1.854-.485 3.71-.98a28.381 28.381 0 004.075-1.413c.611-.271 1.266-.567 1.91-.91s1.267-.719 1.838-1.066c1.1-.663 2.183-1.342 3.263-2.027a21.265 21.265 0 003.305-2.456" fill="#000"/></g></g></g><g data-name="グループ 338"><g data-name="グループ 337"><g data-name="グループ 336" clip-path="url(#q)" transform="translate(87.302 61.295)" opacity=".99"><path data-name="パス 1224" d="M45.208 22.874a1.444 1.444 0 00.055-.339 2.244 2.244 0 00-.076-.711l-.024-.121a29.05 29.05 0 00-.325-1.411c-.3-1.189-.549-2.179-.871-3.191a23.886 23.886 0 00-1.377-3.241 23.507 23.507 0 00-1.667-2.8c-.092-.135-.193-.266-.295-.4-.06-.077-.12-.154-.18-.234a9.345 9.345 0 00-.669-.785l-.124-.133c-.31-.332-.632-.681-.976-1a24.864 24.864 0 00-2.583-2.136l-.276-.2c-.411-.29-.838-.592-1.278-.858-.483-.3-.975-.594-1.47-.882-1.01-.586-2.1-1.1-3.131-1.573A40.282 40.282 0 0023.152.466a11.793 11.793 0 00-1.573-.3l-.134-.005c-.427-.049-.859-.1-1.285-.131a7.736 7.736 0 00-.544-.023 33.645 33.645 0 00-3.376.095 25.548 25.548 0 00-3.041.435c-.308.062-.621.119-.932.176-.638.117-1.3.236-1.931.405a14.7 14.7 0 00-2.791 1.138c-.2.1-.395.2-.591.309a2.252 2.252 0 00-.713.67 1.547 1.547 0 00-.2.384 3.013 3.013 0 00-1.2 1.524 1.77 1.77 0 00.604 1.644 2.716 2.716 0 001.118.559c.26.074.525.135.791.192a22.52 22.52 0 011.157.289l.749.2a14.917 14.917 0 001.757.278c.392.046.782.094 1.168.158.692.122 1.393.281 2.068.435.33.077.656.151.986.225 1.025.219 2.035.513 2.973.8.292.09.586.185.88.276.579.186 1.158.37 1.746.53a38.3 38.3 0 00-3.361-.05c-2.263.072-4.541.244-6.746.411-1.117.085-2.241.172-3.347.21l-.414.015c-.986.035-2.006.071-3.006.139a18.384 18.384 0 00-2.164.278 4.18 4.18 0 00-.784.192 1.4 1.4 0 00-.8.6 1.154 1.154 0 00-.127.663l.019.1H.1l-.03.126a1.794 1.794 0 00-.026.867 5.753 5.753 0 00.55 1.279 16.387 16.387 0 001.818 2.645 16.091 16.091 0 002.333 2.428 18.706 18.706 0 003.085 2.026 32.4 32.4 0 003.115 1.407c1.1.441 2.253.838 3.419 1.181a55.215 55.215 0 006.713 1.608c1.516.254 3.027.432 4.487.535.9.062 1.795.1 2.666.1 1.06.01 2.141-.045 3.182-.1l.227-.012c.912-.047 2.11-.123 3.3-.287a34.785 34.785 0 003.223-.594c.953-.225 1.872-.5 2.893-.82a23.926 23.926 0 002.783-1 2.62 2.62 0 00.957-.669 1.162 1.162 0 00.325-.835l-.011-.1h.007c.032-.067.061-.131.092-.205" fill="#000"/></g></g></g><g data-name="グループ 341"><g data-name="グループ 340"><g data-name="グループ 339" clip-path="url(#r)" transform="translate(45.364 104.239)" opacity=".99"><path data-name="パス 1225" d="M0 .017L.015.003 0 .02" fill="#000"/></g></g></g><g data-name="グループ 344"><g data-name="グループ 343"><g data-name="グループ 342" clip-path="url(#s)" transform="translate(31.014 124.028)" opacity=".99"><path data-name="パス 1226" d="M.199 0C.173.026.145.053.121.081.112.093.101.102.091.113L.077.127l.02-.021a1.348 1.348 0 01-.1.1L.105.091C.141.054.159.033.187.002L.138.056c.018-.021.037-.04.057-.06" fill="#000"/></g></g></g><g data-name="グループ 347"><g data-name="グループ 346"><g data-name="グループ 345" clip-path="url(#t)" transform="translate(44.684 104.769)" opacity=".99"><path data-name="パス 1227" d="M.193.003C.154.044.113.089.071.13L.097.102a1.64 1.64 0 01-.1.105C.062.138.127.067.192 0 .17.021.15.044.13.065L.19.002" fill="#000"/></g></g></g><g data-name="グループ 350"><g data-name="グループ 349"><g data-name="グループ 348" clip-path="url(#u)" transform="translate(30.895 124.357)" opacity=".99"><path data-name="パス 1228" d="M0 .005L.005 0 0 .005" fill="#000"/></g></g></g><g data-name="グループ 353"><g data-name="グループ 352"><g data-name="グループ 351" clip-path="url(#v)" transform="translate(45.234 104.302)" opacity=".99"><path data-name="パス 1229" d="M.088 0C.057.03.028.06 0 .092.026.062.054.034.08.006L.088 0" fill="#000"/></g></g></g><g data-name="グループ 356"><g data-name="グループ 355"><g data-name="グループ 354" clip-path="url(#w)" transform="translate(30.773 124.361)" opacity=".99"><path data-name="パス 1230" d="M0 .132L.122 0 0 .13" fill="#000"/></g></g></g><path data-name="パス 1231" d="M16.092 122.421a4.88 4.88 0 00.429-.774 5.186 5.186 0 00.379-1.295q.189-1.139.419-2.565t.481-2.989q.25-1.563.5-3.2t.48-3.225q.233-1.588.446-3.062t.387-2.695q.17-1.222.283-2.126c.074-.6.128-1.056.164-1.359h2.18l10.8 19.151 10.701-19.149h1.63l2.815 19.344c.08.607.166 1.129.257 1.563s.184.806.275 1.115a7.382 7.382 0 00.266.766 4.086 4.086 0 00.249.5v.065h-4.325v-.065a2.608 2.608 0 00.162-.586 5.324 5.324 0 00.077-.976c0-.141-.005-.286-.016-.432s-.028-.307-.051-.48l-2.18-15.6-10.127 18.074-1.185-.131-10.196-18.113q-.6 3.859-1.047 7.133l-.379 2.793q-.19 1.393-.334 2.6-.146 1.2-.231 2.125a16.038 16.038 0 00-.087 1.36c0 .37.012.7.034.978s.046.521.069.716c.035.228.069.429.1.6h-3.425z" fill="#000"/><path data-name="パス 1232" d="M57.361 99.12q2.118-.015 3.888-.041t3.02-.073a14.614 14.614 0 001.7-.13l-.84 2.166a13.328 13.328 0 00-1.321-.26q-.655-.1-1.588-.187t-2.156-.09q-.412 0-.987.024c-.383.017-.752.035-1.106.056l-1.254.065v8.89q1.771-.017 3.193-.1t2.424-.16q1.168-.1 2.058-.228l-.531 2.361q-1.185-.146-2.419-.276-1.065-.115-2.318-.2a33.55 33.55 0 00-2.4-.09v10.207q2.027 0 3.726-.163t2.97-.375a28.887 28.887 0 002.7-.538l-.5 2.638c-.138-.01-.344-.021-.618-.032a88.796 88.796 0 00-1.982-.056l-1.056-.017c-.331-.005-.625-.01-.884-.017s-.442-.008-.557-.008h-7.429v-.066a7.659 7.659 0 00.2-.847c.064-.336.118-.755.165-1.254s.078-1.095.1-1.784.032-1.495.032-2.419V105.52q0-1.384-.032-2.419t-.1-1.791c-.047-.5-.1-.925-.165-1.263a7.73 7.73 0 00-.2-.847v-.064q2.148 0 4.267-.017" fill="#000"/><path data-name="パス 1233" d="M71.289 99.132l17.68 17.845v-11.461q0-1.384-.035-2.419t-.1-1.791q-.069-.756-.162-1.261a8.617 8.617 0 00-.2-.847v-.065h3.055v.065a7.2 7.2 0 00-.189.847q-.085.5-.154 1.261t-.1 1.791q-.034 1.036-.035 2.419v17.3h-.6l-17.683-17.839v11.142q0 1.384.034 2.417t.1 1.784q.069.749.154 1.255a7.225 7.225 0 00.189.846v.065h-3.054v-.065a8.678 8.678 0 00.2-.846q.093-.506.162-1.255t.1-1.784q.034-1.034.035-2.417v-10.6q0-1.384-.035-2.419t-.1-1.791q-.069-.756-.162-1.261a8.624 8.624 0 00-.2-.847v-.065z" fill="#000"/><path data-name="パス 1234" d="M113.908 105.517q0-1.384-.034-2.419t-.1-1.791q-.067-.756-.154-1.261a7.224 7.224 0 00-.188-.847v-.065h3.055v.065a7.9 7.9 0 00-.2.847 11.975 11.975 0 00-.154 1.261q-.061.758-.1 1.791t-.042 2.419v8.795a10.07 10.07 0 01-.7 3.973 7.081 7.081 0 01-1.957 2.7 7.826 7.826 0 01-3 1.531 14.407 14.407 0 01-3.827.48 15.666 15.666 0 01-3.87-.456 8.538 8.538 0 01-3.124-1.474 6.941 6.941 0 01-2.085-2.638 9.309 9.309 0 01-.772-3.951v-8.96q0-1.384-.035-2.419t-.1-1.791q-.069-.756-.164-1.261a8.285 8.285 0 00-.2-.847v-.065h4.119v.065a7.908 7.908 0 00-.2.847q-.1.5-.164 1.261t-.1 1.791q-.034 1.036-.034 2.419v9.136a7.367 7.367 0 00.609 3.2 5.315 5.315 0 001.605 2 6.007 6.007 0 002.265 1.034 11.577 11.577 0 005.184 0 5.924 5.924 0 002.257-1.034 5.347 5.347 0 001.6-2 7.347 7.347 0 00.61-3.2z" fill="#000"/></g></g></g></svg>