<svg data-name="グループ 360" xmlns="http://www.w3.org/2000/svg" width="119.374" height="118.145"><defs><clipPath id="a"><path data-name="長方形 737" fill="#fff" d="M0 0h119.374v118.145H0z"/></clipPath><clipPath id="b"><path data-name="長方形 736" fill="#fff" d="M0 0h119.374v118.146H0z"/></clipPath><clipPath id="c"><path data-name="長方形 715" fill="#fff" d="M0 0h39.517v41.357H0z"/></clipPath><clipPath id="d"><path data-name="長方形 716" fill="#fff" d="M0 0h16.413v23.618H0z"/></clipPath><clipPath id="e"><path data-name="長方形 718" fill="#fff" d="M0 0h24.407v28.849H0z"/></clipPath><clipPath id="f"><path data-name="長方形 719" fill="#fff" d="M0 0h9.436v11.336H0z"/></clipPath><clipPath id="g"><path data-name="長方形 720" fill="#fff" d="M0 0h4.914v11.294H0z"/></clipPath><clipPath id="h"><path data-name="長方形 721" fill="#fff" d="M0 0h15.565v18.428H0z"/></clipPath><clipPath id="i"><path data-name="長方形 722" fill="#fff" d="M0 0h18.662v18.822H0z"/></clipPath><clipPath id="j"><path data-name="長方形 723" fill="#fff" d="M0 0h.165v.009H0z"/></clipPath><clipPath id="k"><path data-name="長方形 724" fill="#fff" d="M0 0h17.558v9.651H0z"/></clipPath><clipPath id="l"><path data-name="長方形 725" fill="#fff" d="M0 0h9.889v16.744H0z"/></clipPath><clipPath id="m"><path data-name="長方形 726" fill="#fff" d="M0 0h16.543v21.493H0z"/></clipPath><clipPath id="n"><path data-name="長方形 727" fill="#fff" d="M0 0h50.863v19.68H0z"/></clipPath><clipPath id="o"><path data-name="長方形 728" fill="#fff" d="M0 0h37.324v26.047H0z"/></clipPath><clipPath id="p"><path data-name="長方形 729" fill="#fff" d="M0 0h40.763v26.09H0z"/></clipPath><clipPath id="q"><path data-name="長方形 730" fill="#fff" d="M0 0h.013v.015H0z"/></clipPath><clipPath id="r"><path data-name="長方形 731" fill="#fff" d="M0 0h.179v.2H0z"/></clipPath><clipPath id="s"><path data-name="長方形 732" fill="#fff" d="M0 0h.176v.195H0z"/></clipPath><clipPath id="t"><path data-name="長方形 734" fill="#fff" d="M0 0h.079v.088H0z"/></clipPath><clipPath id="u"><path data-name="長方形 735" fill="#fff" d="M0 0h.11v.125H0z"/></clipPath></defs><g data-name="グループ 359"><g data-name="グループ 358" clip-path="url(#a)"><g data-name="グループ 357" clip-path="url(#b)"><g data-name="グループ 296"><g data-name="グループ 295"><g data-name="グループ 294" clip-path="url(#c)" transform="translate(47.393 12.925)" opacity=".99"><path data-name="パス 1210" d="M27.766 15.811c-.27.455-.55.9-.834 1.35-.348.375-.694.75-1.039 1.129-1.079 1.181-2.146 2.376-3.251 3.535q-1.248 1.306-2.5 2.607c-.576.421-1.163.826-1.749 1.232-1.62 1.058-3.251 2.109-4.936 3.066a29.092 29.092 0 01-2.775 1.446c-.861.377-1.735.718-2.621 1.035-1.41.448-2.843.774-4.291 1.08-.332.071-.666.138-1 .214a4.274 4.274 0 00-1.751.827 3.19 3.19 0 00-.88 1.3 2.238 2.238 0 00-.136.9 3.586 3.586 0 00.129.955 4.1 4.1 0 00.906 1.592 5.869 5.869 0 001.327 1.075 19.09 19.09 0 002.565 1.234 11.928 11.928 0 001.161.359 14.839 14.839 0 001.6.353 19.154 19.154 0 002.527.25c.371.013.74-.018 1.109-.038a12.133 12.133 0 001.6-.157 17.832 17.832 0 005.138-1.736 20.805 20.805 0 001.864-1.125c.052 0 .1-.006.153-.012a12.278 12.278 0 003.775-1.1 19.7 19.7 0 003.113-1.862 15.706 15.706 0 002-1.684 88.754 88.754 0 002-2.021 49.846 49.846 0 003.7-4.447c.256-.342.483-.7.727-1.055.217-.319.447-.645.633-.983.289-.511.593-1.016.844-1.544.206-.43.413-.86.617-1.29a18.448 18.448 0 00.84-2.289 22.5 22.5 0 00.6-2.444c.161-.807.295-1.615.415-2.432.066-.438.077-.887.119-1.329a20.716 20.716 0 00-.037-3.205 26.418 26.418 0 00-.844-4.7 30.314 30.314 0 00-.654-2.146 26.257 26.257 0 00-.521-1.45 5.66 5.66 0 00-.827-1.614 1.994 1.994 0 00-.838-.576 2.019 2.019 0 00-.521-.108 2.052 2.052 0 00-.537.03 3.046 3.046 0 00-.9.4 1.245 1.245 0 00-.281-.181 1.02 1.02 0 00-.341-.11.284.284 0 00-.251.1 1.877 1.877 0 00-.349.744 2.69 2.69 0 00-.046.831 14.681 14.681 0 01-.408 2.991 99.554 99.554 0 01-.569 2.369c-.208.812-.5 1.6-.773 2.386a35.476 35.476 0 01-1.881 4.24 59.083 59.083 0 01-1.118 2.013" fill="#fff"/></g></g></g><g data-name="グループ 299"><g data-name="グループ 298"><g data-name="グループ 297" clip-path="url(#d)" transform="translate(29.881 14.554)" opacity=".99"><path data-name="パス 1211" d="M.39 10.123q.289 1.043.656 2.057c.124.543.317 1.076.483 1.6a18.293 18.293 0 001.408 3.306 14.064 14.064 0 001 1.573q.214.325.44.642a6.92 6.92 0 001.313 1.281 3.3 3.3 0 00.591.375 9.078 9.078 0 002.751 2.01 5.4 5.4 0 002.9.449 5.167 5.167 0 00.678.1 3.619 3.619 0 00.648-.029 7.926 7.926 0 001.26.129 1.653 1.653 0 001.56-.683 1.2 1.2 0 00.089-1.218c-.067-.1-.129-.213-.2-.311l.019-.054a3.3 3.3 0 00.15-.894 3.426 3.426 0 00-.072-.86c.037-.079.082-.155.116-.237a4.158 4.158 0 00.225-1.1 4.114 4.114 0 00-.095-1.056 27.161 27.161 0 00-.122-.672 14.068 14.068 0 00-.923-2.848 23.64 23.64 0 00-1.107-2.367c-.05-.093-.1-.188-.151-.28-.138-.354-.285-.7-.438-1.046a30.132 30.132 0 00-2.813-4.753c-.214-.311-.469-.594-.7-.888a14.774 14.774 0 00-1.227-1.364 13.495 13.495 0 00-.833-.744 1.523 1.523 0 00-.436-.287c-.074-.1-.151-.2-.228-.3a4.705 4.705 0 00-1.389-1.2A3.363 3.363 0 004.555.006a2.368 2.368 0 00-.806.074 3.306 3.306 0 00-1.76 1.324 4.768 4.768 0 00-.442.8 3.789 3.789 0 00-.94 1.313 6.2 6.2 0 00-.464 1.6 9.794 9.794 0 00-.141 1.932 12.563 12.563 0 00.387 3.072" fill="#fff"/></g></g></g><g data-name="グループ 305"><g data-name="グループ 304"><g data-name="グループ 303" clip-path="url(#e)" transform="translate(47.135 9.953)" opacity=".99"><path data-name="パス 1213" d="M6.069 18.862a4.874 4.874 0 00-.6-.313 2.44 2.44 0 00-1.294-.1 2.728 2.728 0 00-.654.23c-.086.052-.157.1-.224.14a3.326 3.326 0 00-.749-.19 2.375 2.375 0 00-1.974 3.919 4.533 4.533 0 00.837.689c.056.044.114.083.172.125.134.089.273.177.412.259a4.909 4.909 0 001.117 2.231 6.992 6.992 0 002.825 1.8c.108.04.223.077.337.113a1.914 1.914 0 001.033.955 3.039 3.039 0 002.3-.309c.315-.129.623-.278.932-.421a25.267 25.267 0 001.851-.971q2.119-1.2 4.112-2.6a17.993 17.993 0 003.349-3.068 19.722 19.722 0 002.543-3.924c-.03.063-.063.124-.094.188.061-.117.121-.234.179-.352l-.009.021.011-.023c.073-.146.15-.293.224-.44l-.156.3a19.455 19.455 0 001.091-2.607 13.518 13.518 0 00.76-3.745 11.979 11.979 0 00-.52-3.77 17.42 17.42 0 00-1.052-2.853C22.045 2.58 21.055.854 19.337.204a2.646 2.646 0 00-.291-.083 4.251 4.251 0 00-.651-.118 4.586 4.586 0 00-.614.013 2.017 2.017 0 00-1.107.53 2.61 2.61 0 00-.783 1.6 2.532 2.532 0 00.468 1.728 33.65 33.65 0 01-.781 2.786 34.451 34.451 0 01-1.666 4.038 69.419 69.419 0 01-1.361 2.461 17.236 17.236 0 01-1.827 2.526 18.4 18.4 0 01-2.547 2.242 13.676 13.676 0 01-1.24.708c-.237.118-.482.229-.728.335-.047-.037-.091-.072-.14-.108" fill="#fff"/></g></g></g><g data-name="グループ 308"><g data-name="グループ 307"><g data-name="グループ 306" clip-path="url(#f)" transform="translate(42.571 10.71)" opacity=".99"><path data-name="パス 1214" d="M7.415 11.196a2.758 2.758 0 001.609-1.091 2.7 2.7 0 00.371-1.968 4.839 4.839 0 00-.9-1.859c-.1-.152-.209-.3-.32-.452A5.307 5.307 0 007.8 4.038a8.029 8.029 0 00-1.316-2.12A6.533 6.533 0 005.204.761 7.321 7.321 0 004.19.225a5.157 5.157 0 00-.888-.216h-.067a3.106 3.106 0 00-.736.03 3.528 3.528 0 00-1.4.688 3.193 3.193 0 00-.878 1.3 3.556 3.556 0 00-.212 1.111 8.4 8.4 0 00.049 1.051 8.166 8.166 0 00.726 2.808 8.537 8.537 0 00.559 1.053c.258.4.513.8.807 1.18a5.813 5.813 0 001.551 1.353 4.866 4.866 0 003.718.61" fill="#fff"/></g></g></g><g data-name="グループ 311"><g data-name="グループ 310"><g data-name="グループ 309" clip-path="url(#g)" transform="translate(54.643 11.569)" opacity=".99"><path data-name="パス 1215" d="M.606 11.136a1.552 1.552 0 001.564-.15 3.552 3.552 0 00.958-.863 4.121 4.121 0 00.5-1 17.37 17.37 0 001.178-3.707 7.27 7.27 0 00.054-2.1 7.181 7.181 0 00-.485-1.747A2.381 2.381 0 003.028.133a2.755 2.755 0 00-.6-.129.833.833 0 00-.776.287 2.12 2.12 0 00-.307.935 2.949 2.949 0 00.261 1.476 6.145 6.145 0 01.2.992 5.877 5.877 0 01-.083.991A17.355 17.355 0 01.467 7.911a3.283 3.283 0 00-.463 1.611 1.968 1.968 0 00.605 1.614" fill="#fff"/></g></g></g><g data-name="グループ 314"><g data-name="グループ 313"><g data-name="グループ 312" clip-path="url(#h)" transform="translate(62.532 .788)" opacity=".99"><path data-name="パス 1216" d="M1.15 3.454a2.648 2.648 0 00.757.33c.152.037.306.073.458.113l.08.019a1.7 1.7 0 00.42 1.068 3.968 3.968 0 001.486.813c.518.225 1.038.447 1.542.692a15.452 15.452 0 012.133 1.419 14.47 14.47 0 01.932 1.156 8.643 8.643 0 01.616 1.263 17.708 17.708 0 01.377 2.193c.095.676.207 1.357.272 2.037.007.465-.027.93-.056 1.4a2.3 2.3 0 00.527 1.679l.057.058a1.753 1.753 0 00.447.452 1.634 1.634 0 001.359.226 1.432 1.432 0 00.183-.027 3.493 3.493 0 002.355-2.454 9.075 9.075 0 00.465-2.857 9.434 9.434 0 00-.469-2.825 14.191 14.191 0 00-1.1-2.65A15.372 15.372 0 0012.4 5.254a13 13 0 00-1.936-1.877 13.087 13.087 0 00-2.387-1.433A23.61 23.61 0 004.812.572a16.793 16.793 0 00-2.2-.548A1.443 1.443 0 002.45.005a2.722 2.722 0 00-1.37.317 2.127 2.127 0 00-.988 1.039c-.359.792.434 1.729 1.064 2.092" fill="#fff"/></g></g></g><g data-name="グループ 317"><g data-name="グループ 316"><g data-name="グループ 315" clip-path="url(#i)" transform="translate(22.699 30.566)" opacity=".99"><path data-name="パス 1217" d="M3.322 1.383C3.193.837 2.779.043 2.209.002h-.027a1.9 1.9 0 00-1.5.85 3.945 3.945 0 00-.6 1.9 8.64 8.64 0 00.34 3.823 13.846 13.846 0 00.689 1.739 13.64 13.64 0 00.7 1.22A24.251 24.251 0 003.76 12.2a19.912 19.912 0 004.635 4.1 30 30 0 002.96 1.708 7.125 7.125 0 002.958.8 3.492 3.492 0 002.483-.69 2.771 2.771 0 00.918-1.717 2.192 2.192 0 00-.089-.962 2.115 2.115 0 00.477-1.147.271.271 0 000-.044 1.743 1.743 0 00.024-.3 1.958 1.958 0 00.508-1.685 2.621 2.621 0 00-2.136-1.834c-.76-.2-1.557-.318-2.333-.459l-.1-.022c-.267-.16-.536-.32-.8-.491a25.2 25.2 0 01-2.193-1.665c.146.133.3.265.446.4l-.6-.536a25.055 25.055 0 01-2.44-2.594c-.7-.833-1.4-1.671-2.015-2.563l-.2-.306a3.031 3.031 0 00-.539-.526 2.762 2.762 0 00-.715-.409 1.9 1.9 0 00-.582-.14 2.2 2.2 0 00-.915.147 1.122 1.122 0 00-.188.1" fill="#fff"/></g></g></g><g data-name="グループ 320"><g data-name="グループ 319"><g data-name="グループ 318" clip-path="url(#j)" transform="translate(57.849 57.624)" opacity=".99"><path data-name="パス 1218" d="M.043.007C.083.007.126.001.166 0h-.1a.36.36 0 01-.063 0 .25.25 0 00.043 0" fill="#fff"/></g></g></g><g data-name="グループ 323"><g data-name="グループ 322"><g data-name="グループ 321" clip-path="url(#k)" transform="translate(38.253)" opacity=".99"><path data-name="パス 1219" d="M.02 6.841a1.1 1.1 0 00.351.6 2.074 2.074 0 00.511 1.464c.132.119.268.237.4.357a2.073 2.073 0 001.036.364 1.97 1.97 0 001.538-.5 3.644 3.644 0 00.461-.526c.088-.133.169-.264.252-.395a16.379 16.379 0 012.549-2.183 10.418 10.418 0 011.6-.812 10.637 10.637 0 011.187-.229 15.777 15.777 0 011.694.073 2.384 2.384 0 00.833 1.085 3.04 3.04 0 003.332.1 3.081 3.081 0 001.415-1.566 3.239 3.239 0 00.114-1.7A1.718 1.718 0 0017.15.947a1.532 1.532 0 00-.324-.292 1.623 1.623 0 00-.388-.2 1.592 1.592 0 00-.36-.085 1.907 1.907 0 00-.191-.028 3.693 3.693 0 00-.418-.007c-.235.006-.469.022-.7.04h-.191a10.913 10.913 0 00-1.14-.241 8.9 8.9 0 00-.9-.117 3.382 3.382 0 00-2.017.367c-.714.027-1.426.078-2.142.163-.321.038-.643.119-.964.181-.3.065-.614.132-.915.219a14.525 14.525 0 00-1.627.566A6.823 6.823 0 002.84 2.9a22.119 22.119 0 00-1.459 1.6A11.7 11.7 0 00.229 5.965a1.1 1.1 0 00-.16.286l-.009.016a1.077 1.077 0 00-.044.57" fill="#fff"/></g></g></g><g data-name="グループ 326"><g data-name="グループ 325"><g data-name="グループ 324" clip-path="url(#l)" transform="translate(17.588 13.218)" opacity=".99"><path data-name="パス 1220" d="M1.264 16.341a2.179 2.179 0 003.071-.539 2.577 2.577 0 00.4-1.221c.082-.415.108-.844.158-1.264a20.613 20.613 0 01.266-1.699c.049-.228.1-.454.157-.682a.667.667 0 00.094.063c.865.535 1.7-.026 2.248-.705a3.92 3.92 0 00.7-2.192c.044-.468.117-.93.2-1.392.13-.533.284-1.058.457-1.584.1-.318.233-.627.358-.934a9.262 9.262 0 00.423-1.056 1.884 1.884 0 00-.339-1.8A1.98 1.98 0 008.284.695a.93.93 0 00-.558-.63 1.434 1.434 0 00-.312-.057 2.037 2.037 0 00-1.195.319 2.92 2.92 0 00-.893.81c-.145.2-.286.4-.432.592-.527.712-1.1 1.391-1.661 2.082a13.455 13.455 0 00-1.431 2.146 14.679 14.679 0 00-1.1 2.485 17.432 17.432 0 00-.615 2.932 10.035 10.035 0 00.037 3.025 2.9 2.9 0 001.131 1.945" fill="#fff"/></g></g></g><g data-name="グループ 329"><g data-name="グループ 328"><g data-name="グループ 327" clip-path="url(#m)" transform="translate(12.742 34.028)" opacity=".99"><path data-name="パス 1221" d="M.21 7.097a15.114 15.114 0 001.315 3.217 30.29 30.29 0 001.545 2.848c.157.246.32.485.487.722a14.293 14.293 0 001.335 1.851 27.748 27.748 0 002.9 2.913c.074.078.147.161.222.239a8.422 8.422 0 002.322 1.739c.156.108.314.211.477.312a2.864 2.864 0 002.287.463 4.619 4.619 0 001.544-.024 2.386 2.386 0 001.892-2.144 2.584 2.584 0 00-1.145-2.292c-.264-.194-.541-.38-.8-.586a36.08 36.08 0 01-1-.822 38.824 38.824 0 01-3.54-3.826c-.546-.677-1.056-1.375-1.584-2.059-.5-.65-1-1.291-1.469-1.958a14.142 14.142 0 01-1.006-2.143 14.826 14.826 0 01-.157-.578c-.019-.083-.044-.167-.066-.246a21.67 21.67 0 01-.08-.7c-.032-.648-.063-1.3-.112-1.948A2.362 2.362 0 004.071.125 2.424 2.424 0 003.48.004a2.312 2.312 0 00-1.791.637 4.774 4.774 0 00-.816 1.031 12.4 12.4 0 00-.452.9 5.653 5.653 0 00-.309 1.146 6.868 6.868 0 00-.121 1.473 8.913 8.913 0 00.209 1.9" fill="#fff"/></g></g></g><g data-name="グループ 332"><g data-name="グループ 331"><g data-name="グループ 330" clip-path="url(#n)" transform="translate(34.552 46.297)" opacity=".99"><path data-name="パス 1222" d="M47.112 7.582a16.338 16.338 0 001.71-1.663 13.134 13.134 0 001.623-2.274 3.58 3.58 0 00.349-.894 3.253 3.253 0 00-.015-1.4A1.838 1.838 0 0049.95.113a.921.921 0 00-.39-.116 2 2 0 00-1.141.364 3.3 3.3 0 00-1.208 1.4c-.158.375-.325.738-.519 1.1-.044.085-.1.166-.146.246-.054-.009-.111-.019-.167-.023a1.6 1.6 0 00-.977.251 4.406 4.406 0 00-.7.586c-.139.13-.275.265-.418.393a11.722 11.722 0 01-1.024.8c-.816.519-1.648 1.01-2.465 1.526-.977.611-1.922 1.27-2.876 1.919a15.677 15.677 0 01-2.763 1.358 27.715 27.715 0 01-5.645.871c-1.028.09-2.057.172-3.087.261-.956.084-1.916.2-2.875.263-.026 0-.052 0-.078.006h-.035l-.1.006c-.028 0-.058 0-.086.006h.044l-.136.009.2-.013a.273.273 0 01.032 0 25.627 25.627 0 01-5.306-.536q-.964-.46-1.919-.944c-.656-.343-1.3-.709-1.937-1.09a3.137 3.137 0 00-1.459-.449V8.3a2.9 2.9 0 00-1.442-1.557 5.164 5.164 0 00-1.17-.423 4.7 4.7 0 00-.921-.152c-.229-.017-.458-.019-.683-.017a3.944 3.944 0 00-.627.066 6.153 6.153 0 00-.8-.068 3.247 3.247 0 00-.716.09 2.662 2.662 0 00-.688.286.82.82 0 00-.142.093 2.349 2.349 0 00-1.926.125 1.7 1.7 0 00-.4.354 2.974 2.974 0 00-1.176-.4A1.939 1.939 0 00.12 7.974a4.259 4.259 0 00.091 2.108 9.9 9.9 0 00.466 1.81 7 7 0 001.411 2.227 13.669 13.669 0 002.034 1.873 11.306 11.306 0 002.557 1.416 18.327 18.327 0 002.467.714 44.1 44.1 0 005.708 1.091c1.827.207 3.657.313 5.493.4a50.108 50.108 0 005.77-.019 23.743 23.743 0 005.364-1.017 32.538 32.538 0 002.963-1.063 14.913 14.913 0 002.242-1.3c1.265-.821 2.473-1.741 3.674-2.652a32.06 32.06 0 003.186-2.7 45.958 45.958 0 001.676-1.74c.645-.5 1.292-.994 1.9-1.532m-9.192.989a.136.136 0 00-.029.019l-.421.278.451-.3m-14.818 2.772l.082-.006c-.038 0-.075.006-.112.009a.238.238 0 01.03 0m-.073 0a4.3 4.3 0 01-.222.012.073.073 0 01-.028 0c.085 0 .167-.009.25-.015" fill="#fff"/></g></g></g><g data-name="グループ 335"><g data-name="グループ 334"><g data-name="グループ 333" clip-path="url(#o)" transform="translate(0 61.462)" opacity=".99"><path data-name="パス 1223" d="M32.273 15.486c.475-.474.9-.94 1.318-1.427a18.982 18.982 0 001.232-1.694 28.323 28.323 0 001.726-2.968 7.235 7.235 0 00.693-1.722 4.627 4.627 0 00.074-.535 1.623 1.623 0 00-.207-.943 1.492 1.492 0 00-.866-.638 1.73 1.73 0 00-.4-.075 3.144 3.144 0 00-.684.037 31.63 31.63 0 00-3.544.8l-.287.074c-1.129.3-2.3.645-3.484 1.023a40.983 40.983 0 00-6.925 3.2l-.408.223c-.615.337-1.23.673-1.857.988-.821.41-1.65.8-2.482 1.185l-.076.034.054-.012c-.339.146-.676.3-1.012.449l-.857.387.387-.429c.8-.928 1.556-1.749 2.308-2.5 1.153-1.158 2.371-2.286 3.551-3.377.555-.514 1.111-1.027 1.659-1.545a56.666 56.666 0 012.284-2.057c.47-.382.983-.728 1.476-1.064.291-.2.58-.392.863-.6a3.069 3.069 0 00.381-.32 1.12 1.12 0 00.258-1.061A1.292 1.292 0 0026.292.05a7.503 7.503 0 00-.309-.032 5.281 5.281 0 00-1.655.163 15.835 15.835 0 00-3.462 1.5c-.751.4-1.481.832-2.186 1.251-.281.169-.56.336-.841.5a21.163 21.163 0 00-2.647 1.393c-.56.335-1.1.721-1.628 1.1l-.286.2a31.45 31.45 0 00-1.869 1.453c-.052.04-.095.077-.135.11A38.5 38.5 0 006 12.722a37.4 37.4 0 00-4.229 6.355 18.7 18.7 0 00-.792 1.794A16.409 16.409 0 00.3 22.904a9.385 9.385 0 00-.3 1.79 1.4 1.4 0 00.434.991 1.313 1.313 0 00.823.358 1.206 1.206 0 00.188 0 2.4 2.4 0 00.48-.1l.2-.054a28.694 28.694 0 012.21-.167c.259-.013.518-.026.778-.041a40.128 40.128 0 003.4-.347c.969-.141 1.935-.3 2.9-.466l.606-.1.14-.023c.637-.1 1.3-.213 1.937-.365s1.249-.318 1.874-.49q1.67-.46 3.34-.93a24.688 24.688 0 003.669-1.341c.55-.257 1.14-.538 1.719-.863s1.141-.682 1.655-1.012c.986-.63 1.965-1.274 2.938-1.924a19.249 19.249 0 002.976-2.331" fill="#fff"/></g></g></g><g data-name="グループ 338"><g data-name="グループ 337"><g data-name="グループ 336" clip-path="url(#p)" transform="translate(78.611 58.169)" opacity=".99"><path data-name="パス 1224" d="M40.708 21.708a1.438 1.438 0 00.05-.321 2.239 2.239 0 00-.068-.675l-.022-.114c-.084-.448-.188-.894-.292-1.34-.268-1.129-.494-2.068-.784-3.029a23.342 23.342 0 00-1.24-3.076 22.6 22.6 0 00-1.5-2.66 7.977 7.977 0 00-.265-.376c-.054-.073-.108-.146-.162-.222a8.766 8.766 0 00-.6-.745l-.112-.127c-.279-.315-.569-.647-.879-.947a22.688 22.688 0 00-2.326-2.028l-.248-.185a20.62 20.62 0 00-1.151-.815 51.051 51.051 0 00-1.324-.837c-.91-.557-1.892-1.044-2.819-1.493a35.059 35.059 0 00-6.121-2.27 10.135 10.135 0 00-1.416-.281l-.123-.015c-.385-.046-.773-.1-1.157-.124a6.819 6.819 0 00-.49-.022 28.751 28.751 0 00-3.039.09 21.9 21.9 0 00-2.739.413c-.278.058-.559.113-.839.167-.575.111-1.168.224-1.739.385a12.865 12.865 0 00-2.515 1.08c-.18.094-.356.194-.532.293a2.077 2.077 0 00-.642.636 1.5 1.5 0 00-.183.364 2.84 2.84 0 00-1.086 1.447 1.726 1.726 0 00.55 1.56 2.4 2.4 0 001.007.531c.234.071.472.128.712.183.155.035.308.072.464.114.191.049.386.1.578.16.225.063.449.127.675.185a12.8 12.8 0 001.582.264c.353.044.7.089 1.052.15.623.116 1.254.267 1.862.413.3.073.591.144.888.213a30.7 30.7 0 012.677.76c.263.085.527.175.793.262.521.177 1.042.351 1.572.5a32.636 32.636 0 00-3.026-.047c-2.037.068-4.089.231-6.074.39-1.006.08-2.018.163-3.014.2l-.373.015c-.888.033-1.806.067-2.707.132a15.749 15.749 0 00-1.948.264 3.606 3.606 0 00-.706.183 1.266 1.266 0 00-.721.567 1.146 1.146 0 00-.114.63l.017.095H.084l-.027.119a1.791 1.791 0 00-.023.823 5.619 5.619 0 00.5 1.214 15.6 15.6 0 001.637 2.51 14.961 14.961 0 002.1 2.311 16.791 16.791 0 002.774 1.921 28.473 28.473 0 002.806 1.335c.994.419 2.029.8 3.078 1.12a47.6 47.6 0 006.045 1.526 40.569 40.569 0 004.04.508c.809.058 1.616.093 2.4.1.955.01 1.928-.043 2.865-.1l.2-.011c.821-.045 1.9-.117 2.975-.273a29.706 29.706 0 002.9-.564c.859-.213 1.685-.477 2.6-.778a20.832 20.832 0 002.506-.946 2.365 2.365 0 00.862-.634 1.137 1.137 0 00.292-.793l-.01-.093h.006c.029-.063.055-.124.083-.195" fill="#fff"/></g></g></g><g data-name="グループ 341"><g data-name="グループ 340"><g data-name="グループ 339" clip-path="url(#q)" transform="translate(40.848 98.924)" opacity=".99"><path data-name="パス 1225" d="M0 .016L.013.003 0 .019" fill="#fff"/></g></g></g><g data-name="グループ 344"><g data-name="グループ 343"><g data-name="グループ 342" clip-path="url(#r)" transform="translate(27.926 117.704)" opacity=".99"><path data-name="パス 1226" d="M.179 0C.156.024.13.05.108.077l-.027.03-.014.014.018-.019c-.028.033-.06.066-.088.1.034-.038.065-.074.1-.11S.146.037.171.008L.127.059.178.002" fill="#fff"/></g></g></g><g data-name="グループ 347"><g data-name="グループ 346"><g data-name="グループ 345" clip-path="url(#s)" transform="translate(40.236 99.427)" opacity=".99"><path data-name="パス 1227" d="M.174.002C.139.041.102.084.064.123L.087.096l-.086.1.175-.2A1.117 1.117 0 00.12.058l.054-.06" fill="#fff"/></g></g></g><g data-name="グループ 353"><g data-name="グループ 352"><g data-name="グループ 351" clip-path="url(#t)" transform="translate(40.731 98.983)" opacity=".99"><path data-name="パス 1229" d="M.079 0A1.101 1.101 0 000 .088C.023.06.049.033.072.006L.079 0" fill="#fff"/></g></g></g><g data-name="グループ 356"><g data-name="グループ 355"><g data-name="グループ 354" clip-path="url(#u)" transform="translate(27.71 118.02)" opacity=".99"><path data-name="パス 1230" d="M0 .125L.11 0 0 .123" fill="#fff"/></g></g></g><path data-name="パス 1231" d="M14.491 116.18a4.708 4.708 0 00.386-.734 5.122 5.122 0 00.341-1.229q.17-1.081.378-2.434t.434-2.836q.225-1.483.448-3.037t.432-3.06q.21-1.507.4-2.906t.348-2.557q.153-1.16.255-2.018c.067-.571.116-1 .147-1.29h1.961l9.721 18.175 9.649-18.175h1.467l2.533 18.361c.072.576.15 1.072.231 1.483s.166.765.247 1.058a7.263 7.263 0 00.24.727 3.964 3.964 0 00.224.471v.062h-3.895v-.062a2.579 2.579 0 00.146-.557 5.318 5.318 0 00.069-.927c0-.134 0-.272-.015-.41s-.026-.291-.046-.455L38.63 99.023l-9.119 17.157-1.067-.124-9.18-17.186q-.541 3.662-.943 6.769-.17 1.33-.341 2.651t-.3 2.465q-.132 1.143-.208 2.017a16.09 16.09 0 00-.078 1.291c0 .351.011.66.03.928s.041.494.062.68c.032.217.062.407.093.572h-3.088z" fill="#fff"/><path data-name="パス 1232" d="M51.649 94.062q1.907-.015 3.5-.039t2.719-.069a12.5 12.5 0 001.529-.123l-.748 2.056a11.457 11.457 0 00-1.19-.247q-.59-.093-1.43-.178a19.409 19.409 0 00-1.941-.085q-.371 0-.889.023a54.09 54.09 0 00-1 .054l-1.129.062v8.439q1.595-.016 2.875-.093t2.18-.155q1.052-.093 1.853-.217l-.479 2.241q-1.067-.139-2.179-.262-.959-.11-2.087-.194a28.65 28.65 0 00-2.164-.085v9.688a33.4 33.4 0 003.355-.155q1.529-.153 2.674-.356a24.725 24.725 0 002.427-.51l-.449 2.5c-.124-.01-.309-.019-.557-.03s-.524-.021-.827-.03-.622-.018-.958-.023l-.951-.016c-.3 0-.563-.01-.8-.016s-.4-.007-.5-.007h-6.674v-.057a7.6 7.6 0 00.178-.8c.057-.319.106-.716.149-1.19s.071-1.039.093-1.693.029-1.419.029-2.3v-10.059q0-1.313-.029-2.3t-.093-1.7a14.115 14.115 0 00-.149-1.2 7.672 7.672 0 00-.178-.8v-.058q1.934 0 3.842-.016" fill="#fff"/><path data-name="パス 1233" d="M64.192 94.077l15.919 16.939v-10.881q0-1.313-.032-2.3t-.093-1.7q-.062-.718-.146-1.2t-.178-.8v-.062h2.751v.062a7.141 7.141 0 00-.17.8q-.077.479-.139 1.2t-.093 1.7q-.031.983-.032 2.3v16.414h-.541L65.522 99.622v10.576q0 1.313.03 2.294t.093 1.693q.062.711.139 1.191a7.174 7.174 0 00.17.8v.062h-2.753v-.062q.091-.323.178-.8t.146-1.191q.062-.711.093-1.693t.032-2.294v-10.063q0-1.313-.032-2.3t-.093-1.7q-.062-.718-.146-1.2t-.178-.8v-.062z" fill="#fff"/><path data-name="パス 1234" d="M102.568 100.137q0-1.313-.03-2.3t-.094-1.7q-.06-.718-.139-1.2a7.175 7.175 0 00-.169-.8v-.062h2.747v.062a7.845 7.845 0 00-.178.8 11.947 11.947 0 00-.139 1.2q-.055.72-.094 1.7t-.038 2.3v8.346a10.014 10.014 0 01-.634 3.77 6.715 6.715 0 01-1.762 2.558 6.923 6.923 0 01-2.7 1.453 12.347 12.347 0 01-3.446.455 13.42 13.42 0 01-3.485-.432 7.523 7.523 0 01-2.813-1.4 6.543 6.543 0 01-1.878-2.5 9.249 9.249 0 01-.679-3.747v-8.5q0-1.313-.032-2.3t-.093-1.7q-.062-.718-.147-1.2a8.229 8.229 0 00-.177-.8v-.062h3.709v.062a7.843 7.843 0 00-.178.8q-.086.479-.147 1.2t-.093 1.7q-.031.983-.03 2.3v8.67a7.32 7.32 0 00.548 3.037 5 5 0 001.445 1.9 5.285 5.285 0 002.04.982 9.906 9.906 0 004.668 0 5.212 5.212 0 002.032-.982 5.036 5.036 0 001.437-1.9 7.3 7.3 0 00.549-3.037z" fill="#fff"/></g></g></g></svg>