<svg xmlns="http://www.w3.org/2000/svg" width="38.759" height="24.178"><defs><clipPath id="a"><path data-name="長方形 2057" fill="#4d484a" d="M0 0h38.759v24.178H0z"/></clipPath></defs><g data-name="グループ 1000" clip-path="url(#a)" fill="#4d484a"><path data-name="パス 12072" d="M.949 22.994l.27.045c.246.058.491.119.733.181s.477.125.723.181c.519.113 1.069.222 1.726.336l.333.056a24.379 24.379 0 002.928.372c.5.02 1.008.015 1.557-.006a19.086 19.086 0 001.582-.109 4.236 4.236 0 00.68-.14 6.54 6.54 0 00.7-.27 1.332 1.332 0 00.261-.149.553.553 0 00.179-.22.587.587 0 00.052-.2.566.566 0 00-.247-.519.688.688 0 00-.326-.126l-.058-.011-.087-.014-.084-.013c-.09-.017-.176-.031-.264-.049l-.055-.006c-.165-.049-.351-.095-.531-.146l-.283-.061-.128-.032c-.26-.07-.519-.14-.771-.218a12.31 12.31 0 01-.631-.214l-.236-.081a10.686 10.686 0 00-.568-.176l.481-.042c.37-.043.741-.088 1.116-.111h.021l.046-.006v.007l.21-.014h.143c.15 0 .3-.009.447-.008.1 0 .2 0 .306.008a2.716 2.716 0 00.3.007 1.039 1.039 0 00.332-.049l.053.03a.969.969 0 00.645.115.9.9 0 00.337-.133 1.163 1.163 0 00.576.14 1 1 0 00-.292-.737 2.777 2.777 0 00-.318-.271c-.14-.111-.271-.214-.4-.309a6.362 6.362 0 00-1.5-.826 11.6 11.6 0 00-3.375-.641 8.824 8.824 0 00-1.724.126l-.107.02c-.247.047-.495.091-.741.154q-.416.108-.827.238a7.557 7.557 0 00-1.52.709 11.075 11.075 0 00-1.367.952 4.711 4.711 0 00-.637.642l-.092.108a3.506 3.506 0 00-.406.537c-.024.042-.049.082-.07.129a.536.536 0 00-.041.179.5.5 0 00.121.368.756.756 0 00.448.21c.126.024.251.043.382.062m11.257-2.206l.026.026c.018.019.017.038 0 .066l-.015.018.015-.018a.051.051 0 00-.005-.063zm.616.4a.052.052 0 01.018.011l.005-.006-.009.011-.021-.013m.194-.21a.136.136 0 01-.01.04.136.136 0 00.01-.04.329.329 0 00-.035-.191.329.329 0 01.035.191m-.242-.449a.975.975 0 00-.242-.14.667.667 0 00-.276-.049.667.667 0 01.276.049.975.975 0 01.242.14m-.885-.109a1.2 1.2 0 01.254-.07 1.2 1.2 0 00-.254.07c-.025.007-.051.021-.08.026.029-.005.055-.02.08-.026m-.041.042h.009l.028.021c.084.053.164.115.247.176-.084-.062-.16-.122-.245-.175l-.039-.026m.1.1a.194.194 0 00-.039-.021.194.194 0 01.039.021m-.3.034a.692.692 0 00-.088.136.214.214 0 00-.02.059.214.214 0 01.02-.059.692.692 0 01.088-.136m.158.576z"/><path data-name="パス 12073" d="M38.56 9.972a.754.754 0 00.2-.455.5.5 0 00-.151-.355.527.527 0 00-.154-.1c-.046-.021-.093-.035-.14-.052a3.6 3.6 0 00-.659-.14l-.14-.019a4.628 4.628 0 00-.9-.07 11.187 11.187 0 00-1.658.177 7.562 7.562 0 00-1.612.465c-.264.115-.524.235-.78.364-.227.114-.442.243-.66.371l-.093.055a8.874 8.874 0 00-1.381 1.042 9.517 9.517 0 00-1.121 1.217 9.408 9.408 0 00-1.007 1.484 6.4 6.4 0 00-.585 1.6c-.034.156-.062.318-.1.5a2.928 2.928 0 00-.06.413 1 1 0 00.263.749 1.176 1.176 0 00.343-.484.929.929 0 00.341-.121.968.968 0 00.411-.51l.02-.059a1.007 1.007 0 00.28-.18c.078-.065.151-.136.224-.2s.146-.14.224-.21c.112-.1.228-.19.344-.287l.114-.094h-.008l.165-.126h-.005l.039-.027v-.005l.016-.011c.3-.229.607-.439.914-.649l.391-.285c-.109.166-.211.336-.312.506l-.125.215c-.108.194-.218.389-.337.577-.14.226-.289.449-.439.672l-.076.108-.166.245c-.105.156-.214.313-.305.458l-.036.039-.166.21-.055.065-.057.07-.037.046a.7.7 0 00-.166.3.609.609 0 000 .3.593.593 0 00.155.26.621.621 0 00.173.119.549.549 0 00.28.049 1.443 1.443 0 00.3-.059 6.839 6.839 0 00.705-.257 4.115 4.115 0 00.605-.34c.452-.3.89-.653 1.266-.955.43-.346.814-.677 1.177-1.019a24.17 24.17 0 001.963-2.2l.215-.258c.42-.517.764-.961 1.079-1.388.15-.2.288-.41.428-.61s.284-.416.434-.62l.175-.21c.086-.1.166-.2.246-.3m-10.19 6.04a.053.053 0 00.037.05.069.069 0 00.025 0 .069.069 0 01-.025 0c-.028-.013-.041-.026-.039-.052v-.037zm-.21.691h-.006a.059.059 0 01.006-.021l-.007.024m-.374-.218a.33.33 0 00.1.168.213.213 0 00.034.022.213.213 0 01-.034-.022.33.33 0 01-.1-.168m.076-.6a.654.654 0 01.177-.216.654.654 0 00-.177.216 1.049 1.049 0 00-.09.266 1.049 1.049 0 01.09-.266m.585-.431c-.025.014-.055.02-.078.032a1.219 1.219 0 00-.235.116 1.219 1.219 0 01.235-.116c.024-.013.053-.018.078-.032m-.028.084c-.028.095-.047.191-.07.293.024-.1.043-.2.07-.3l.008-.034v-.008l-.014.045m.015.056a.137.137 0 00-.014.042.137.137 0 01.014-.042m.39-.087a.2.2 0 01.053.031.233.233 0 00-.053-.031.694.694 0 00-.155-.045.694.694 0 01.155.045m.1.491z"/><path data-name="パス 12074" d="M14.859 15.404c.2.151.41.3.624.431a3.73 3.73 0 00.736.322 5.669 5.669 0 001.74.256 8.429 8.429 0 001.344-.08 7.5 7.5 0 001.857-.435 19.813 19.813 0 001.975-.945 8.75 8.75 0 001.394-.9 11.436 11.436 0 001.51-1.435 5.92 5.92 0 001.066-1.7 6.262 6.262 0 00.468-2.028 3.113 3.113 0 00-.091-.8 1.264 1.264 0 00-.105-.351 5.6 5.6 0 00-.491-.966 1.783 1.783 0 00-1.142-.857 2.647 2.647 0 00-.309-.021.786.786 0 00-.332.063.9.9 0 00-.464.406 1.742 1.742 0 00-.191.971 5.038 5.038 0 010 .506 6.965 6.965 0 01-.275 1.183 7.11 7.11 0 01-.478.923 11.721 11.721 0 01-1.446 1.532 13.057 13.057 0 01-2.298 1.451c-.376.159-.761.294-1.145.435a7.171 7.171 0 01-1.1.306 5.945 5.945 0 01-1.159.07 4.648 4.648 0 01-.866-.225 5.6 5.6 0 01-.7-.351.212.212 0 00-.088-.092c-.3-.1-.561.163-.712.385a1.172 1.172 0 00-.091 1.034 2.236 2.236 0 00.765.911"/><path data-name="パス 12075" d="M6.81 12.245c.021.21.065.421.1.637a.279.279 0 00-.01-.058 5.432 5.432 0 00.2.841 5.3 5.3 0 00.366.856c.134.243.274.487.414.729a5.179 5.179 0 00.589.829 3.079 3.079 0 00.6.526 5.121 5.121 0 00.828.524 2.959 2.959 0 00.736.246 3.03 3.03 0 00.657.076 1.206 1.206 0 00.9-.35 1.705 1.705 0 00.14-.2.926.926 0 00.111-.468 1.079 1.079 0 00-.045-.253 1.066 1.066 0 00-.28-.431 3.086 3.086 0 00-.374-.257c-.057-.031-.119-.062-.18-.093-.189-.1-.39-.184-.582-.28a6.808 6.808 0 01-.472-.28 5 5 0 01-.764-.688c-.147-.175-.274-.362-.407-.544a5.7 5.7 0 01-.37-.579c-.116-.211-.21-.434-.326-.646s-.256-.442-.369-.667a5.54 5.54 0 01-.236-.674c-.045-.172-.1-.347-.13-.52a2.389 2.389 0 00-.07-.409c-.035-.106-.082-.21-.121-.317.024-.08.052-.161.078-.241a2.456 2.456 0 01.233-.431c-.014.017-.024.035-.038.052a1.426 1.426 0 00.256-.7l-.007-.007a1.238 1.238 0 00-.42.2 1.62 1.62 0 00-.351.395 2.611 2.611 0 00-.191.322 3.306 3.306 0 00-.2.485c-.05.149-.095.291-.14.435a3.8 3.8 0 00-.09.475 7.71 7.71 0 00-.062.507 3.658 3.658 0 000 .475c0 .156 0 .315.021.475"/><path data-name="パス 12076" d="M20.516 6.099s-.013.009-.021.009l-.009.009a.162.162 0 01.03-.017"/><path data-name="パス 12077" d="M14.632 11.234a1.43 1.43 0 00.448.2 4.384 4.384 0 001.047.117 5.9 5.9 0 001.076-.14 7.026 7.026 0 00.887-.2 4.535 4.535 0 001.034-.461 4.016 4.016 0 00.911-.771 6.667 6.667 0 00.71-.925 3.918 3.918 0 00.448-.967 4.149 4.149 0 00.108-.448 1.784 1.784 0 000-.916 1.09 1.09 0 00-.343-.531.6.6 0 00-.3-.14.123.123 0 00-.114.021 1.047 1.047 0 00-.172-.168h-.009a1.088 1.088 0 00-.074.18v.003l-.064.187a1.25 1.25 0 00-.213.184 2.023 2.023 0 00-.385.753c-.046.122-.1.235-.147.35a2.259 2.259 0 01-.225.389 7.188 7.188 0 01-1.008 1.154 4.126 4.126 0 01-.523.34c-.268.112-.539.211-.81.3a8 8 0 01-.925.247 3.63 3.63 0 01-.661.036 1.728 1.728 0 01-.248-.057.549.549 0 00-.28-.059.649.649 0 00-.318.1.673.673 0 00-.218.239.718.718 0 00-.046.481.876.876 0 00.426.5m5.913-5.158h-.017.009m-.051.034c.009 0 .017-.009.021-.009h-.009l-.013.009h-.009c-.013 0-.028.01-.041.017a.432.432 0 00.05-.025m-2.824 5.088a.327.327 0 01.069-.03 2.31 2.31 0 01-.159.07c.03-.013.059-.03.093-.042"/><path data-name="パス 12078" d="M10.391 9.497a6.083 6.083 0 00.205.59 5.7 5.7 0 00.192.635 3.883 3.883 0 00.239.561 2.958 2.958 0 00.258.389 1.849 1.849 0 00.565.506.9.9 0 00.782.135.835.835 0 00.452-.376c.025-.063.046-.122.07-.189a.775.775 0 00-.017-.4 1.264 1.264 0 00-.326-.518c-.126-.155-.233-.314-.347-.477a5.251 5.251 0 01-.421-.766 5.568 5.568 0 01-.33-1.034 4.44 4.44 0 01-.013-.916 2.826 2.826 0 01.1-.42 4.118 4.118 0 01.7-1.022c.15-.168.314-.326.477-.481a4.309 4.309 0 00.406-.338 1.577 1.577 0 00.339-.59.64.64 0 00.042-.176.473.473 0 000-.229c-.03-.046-.155-.08-.205-.1a1.139 1.139 0 00-.293-.046.644.644 0 00-.088 0 1.675 1.675 0 00-.473.076 2.958 2.958 0 00-.573.309 4.118 4.118 0 00-.87.662 5.151 5.151 0 00-.715.942 3 3 0 00-.4 1.339 4.8 4.8 0 00.024.911 6.514 6.514 0 00.222 1.029"/><path data-name="パス 12079" d="M15.35 7.454a1.066 1.066 0 00.577.134 1.609 1.609 0 00.652-.21 2.266 2.266 0 00.5-.376 3.032 3.032 0 00.37-.389 6.443 6.443 0 00.517-.721 1.5 1.5 0 00.235-.8.927.927 0 00-.14-.468 2.054 2.054 0 00-.159-.193 1.947 1.947 0 00-.2-.14.731.731 0 00-.41-.105 1.839 1.839 0 00-.313.03 1.438 1.438 0 00-.378.154 1.985 1.985 0 00-.389.28 4.4 4.4 0 00-.857.79 2.072 2.072 0 00-.159.252 1.8 1.8 0 00-.229.355 1.051 1.051 0 00.385 1.409"/><path data-name="パス 12080" d="M15.692 1.44h-.015.007c.046.009.093.013.14.017a2.8 2.8 0 00.527 0 2.508 2.508 0 01.531 0 6.288 6.288 0 01.975.238q.491.157.981.327a7.629 7.629 0 011.472.783 5.548 5.548 0 01.841.767 2.012 2.012 0 00.815.715 1.23 1.23 0 00.9.1.487.487 0 01-.076.017.651.651 0 00.465-.573 1.72 1.72 0 00-.34-1.267 6.332 6.332 0 00-.611-.733 5.294 5.294 0 00-.815-.66A5.548 5.548 0 0020.621.7a7.112 7.112 0 00-1.244-.419C19.001.2 18.606.16 18.228.1c-.185-.025-.364-.059-.548-.076a3.266 3.266 0 00-.4-.026 2.689 2.689 0 00-.318.017 2.12 2.12 0 00-1.351.509 1.263 1.263 0 00-.3.506c-.017.042-.084.3-.03.322a1.145 1.145 0 00.414.089m.093 0h-.03a.06.06 0 01-.025 0h.017-.034.017a.248.248 0 00.055 0"/><path data-name="パス 12081" d="M15.692 17.747a2.357 2.357 0 00-.561-.084 1.442 1.442 0 00-.56.159v.013c.07.092.13.187.193.284a1.335 1.335 0 00.38.414 1.769 1.769 0 00.491.239 2.626 2.626 0 00.543.089.283.283 0 00.055 0 5.356 5.356 0 01.673.129 4.615 4.615 0 00.746.159 2.88 2.88 0 001.109-.034c.216-.038.431-.093.645-.135.246-.038.491-.061.744-.078a5.36 5.36 0 001.033-.151 5.485 5.485 0 001.813-1c.28-.211.539-.452.8-.687.231-.2.452-.414.666-.635.241-.247.5-.485.728-.75.088-.1.172-.211.256-.322a1.826 1.826 0 00.3-.5 1.1 1.1 0 00-.017-.732v-.009a2.585 2.585 0 00-.553.389c-.164.14-.305.318-.465.468-.167.171-.35.335-.535.491a11.723 11.723 0 01-2.141 1.351 5.825 5.825 0 01-1.146.393c-.389.046-.786.034-1.175.084a6.107 6.107 0 00-.911.172c-.211.053-.41.112-.61.162a6.052 6.052 0 01-1-.013 4.178 4.178 0 00-.565 0c-.2.017-.385.055-.577.088a2.474 2.474 0 01-.35.029"/></g></svg>