<svg xmlns="http://www.w3.org/2000/svg" width="215.341" height="51.48"><defs><clipPath id="a"><path data-name="パス 14071" d="M0 0h215.341v51.48H0z" fill="none"/></clipPath><clipPath id="b"><path data-name="長方形 2108" fill="none" d="M0 0h215.341v51.48H0z"/></clipPath><clipPath id="c"><path data-name="長方形 2065" transform="translate(196.3 2.085)" fill="none" d="M0 0h8.458v11.027H0z"/></clipPath><clipPath id="d"><path data-name="長方形 2066" transform="translate(190.878 4.66)" fill="none" d="M0 0h4.622v5.299H0z"/></clipPath><clipPath id="e"><path data-name="長方形 2068" transform="translate(195.45 2.154)" fill="none" d="M0 0h5.375v7.344H0z"/></clipPath><clipPath id="f"><path data-name="長方形 2069" transform="translate(193.588 3.231)" fill="none" d="M0 0h2.518v2.576H0z"/></clipPath><clipPath id="g"><path data-name="長方形 2070" transform="translate(196.738 2.923)" fill="none" d="M0 0h1.016v2.75H0z"/></clipPath><clipPath id="h"><path data-name="長方形 2071" transform="translate(197.827)" fill="none" d="M0 0h4.254v3.951H0z"/></clipPath><clipPath id="i"><path data-name="長方形 2072" transform="translate(189.771 8.902)" fill="none" d="M0 0h4.879v3.943H0z"/></clipPath><clipPath id="j"><path data-name="長方形 2073" transform="translate(199.219 13.832)" fill="none" d="M0 0h.039v.01H0z"/></clipPath><clipPath id="k"><path data-name="長方形 2074" transform="translate(192.238 .385)" fill="none" d="M0 0h4.009v2.832H0z"/></clipPath><clipPath id="l"><path data-name="長方形 2075" transform="translate(188.158 4.772)" fill="none" d="M0 0h1.945v4.212H0z"/></clipPath><clipPath id="m"><path data-name="長方形 2076" transform="translate(187.619 10.117)" fill="none" d="M0 0h4.613v4.713H0z"/></clipPath><clipPath id="n"><path data-name="長方形 2077" transform="translate(193.546 9.953)" fill="none" d="M0 0h11.821v6.168H0z"/></clipPath><clipPath id="o"><path data-name="長方形 2078" transform="translate(186.744 16.196)" fill="none" d="M0 0h8.098v7.322H0z"/></clipPath><clipPath id="p"><path data-name="長方形 2079" transform="translate(204.755 12.179)" fill="none" d="M0 0h10.092v6.047H0z"/></clipPath><clipPath id="q"><path data-name="長方形 2080" transform="translate(194.04 16.536)" fill="none" d="M0 0h10.37v13.714H0z"/></clipPath><clipPath id="r"><path data-name="長方形 2082" transform="translate(194.841 29.476)" fill="none" d="M0 0h.034v.055H0z"/></clipPath><clipPath id="s"><path data-name="長方形 2083" transform="translate(196.938 24.572)" fill="none" d="M0 0h.033v.055H0z"/></clipPath><clipPath id="t"><path data-name="長方形 2084" transform="translate(197.03 24.448)" fill="none" d="M0 0h.016v.025H0z"/></clipPath><clipPath id="u"><path data-name="長方形 2085" transform="translate(194.801 29.565)" fill="none" d="M0 0h.021v.035H0z"/></clipPath><clipPath id="v"><path data-name="長方形 2086" transform="translate(10.583 2.085)" fill="none" d="M0 0h8.458v11.027H0z"/></clipPath><clipPath id="w"><path data-name="長方形 2087" transform="translate(19.841 4.66)" fill="none" d="M0 0h4.622v5.299H0z"/></clipPath><clipPath id="x"><path data-name="長方形 2089" transform="translate(14.516 2.154)" fill="none" d="M0 0h5.375v7.344H0z"/></clipPath><clipPath id="y"><path data-name="長方形 2090" transform="translate(19.235 3.231)" fill="none" d="M0 0h2.518v2.576H0z"/></clipPath><clipPath id="z"><path data-name="長方形 2091" transform="translate(17.587 2.923)" fill="none" d="M0 0h1.016v2.75H0z"/></clipPath><clipPath id="A"><path data-name="長方形 2092" transform="translate(13.26)" fill="none" d="M0 0h4.255v3.951H0z"/></clipPath><clipPath id="B"><path data-name="長方形 2093" transform="translate(20.691 8.902)" fill="none" d="M0 0h4.879v3.943H0z"/></clipPath><clipPath id="C"><path data-name="長方形 2094" transform="translate(16.083 13.832)" fill="none" d="M0 0h.039v.01H0z"/></clipPath><clipPath id="D"><path data-name="長方形 2095" transform="translate(19.094 .385)" fill="none" d="M0 0h4.009v2.832H0z"/></clipPath><clipPath id="E"><path data-name="長方形 2096" transform="translate(25.238 4.772)" fill="none" d="M0 0h1.945v4.212H0z"/></clipPath><clipPath id="F"><path data-name="長方形 2097" transform="translate(23.109 10.117)" fill="none" d="M0 0h4.613v4.713H0z"/></clipPath><clipPath id="G"><path data-name="長方形 2098" transform="translate(9.974 9.953)" fill="none" d="M0 0h11.821v6.168H0z"/></clipPath><clipPath id="H"><path data-name="長方形 2099" transform="translate(20.499 16.196)" fill="none" d="M0 0h8.098v7.322H0z"/></clipPath><clipPath id="I"><path data-name="長方形 2100" transform="translate(.494 12.179)" fill="none" d="M0 0h10.092v6.047H0z"/></clipPath><clipPath id="J"><path data-name="長方形 2101" transform="translate(10.931 16.536)" fill="none" d="M0 0h10.37v13.714H0z"/></clipPath><clipPath id="K"><path data-name="長方形 2103" transform="translate(20.466 29.476)" fill="none" d="M0 0h.033v.055H0z"/></clipPath><clipPath id="L"><path data-name="長方形 2104" transform="translate(18.37 24.572)" fill="none" d="M0 0h.032v.055H0z"/></clipPath><clipPath id="M"><path data-name="長方形 2106" transform="translate(18.295 24.448)" fill="none" d="M0 0h.015v.025H0z"/></clipPath><clipPath id="N"><path data-name="長方形 2107" transform="translate(20.519 29.565)" fill="none" d="M0 0h.021v.035H0z"/></clipPath></defs><g data-name="マスクグループ 5"><g data-name="グループ 1163" clip-path="url(#a)"><g data-name="グループ 1162" clip-path="url(#b)"><path data-name="パス 14019" d="M42.881 35.407a6.785 6.785 0 00.546-1.04 7.294 7.294 0 00.483-1.739q.239-1.533.535-3.447t.613-4.016q.318-2.1.634-4.3t.614-4.333q.294-2.134.569-4.115t.492-3.617q.219-1.641.361-2.855t.207-1.828h2.78L64.48 29.848 78.136 4.112h2.079l3.589 26q.154 1.225.328 2.1c.117.583.235 1.083.35 1.5a10.128 10.128 0 00.341 1.029 5.181 5.181 0 00.316.667v.088h-5.515v-.088a3.523 3.523 0 00.208-.788 7.5 7.5 0 00.1-1.313c0-.19-.006-.383-.02-.58s-.038-.412-.067-.645l-2.781-20.967-12.912 24.292-1.51-.175-13-24.336q-.765 5.187-1.335 9.586-.24 1.881-.481 3.753t-.426 3.491q-.186 1.619-.295 2.855t-.11 1.828q0 .744.044 1.313c.029.379.059.7.088.963.043.306.088.576.131.81h-4.377z" fill="#4d484a"/><path data-name="パス 14020" d="M95.5 4.091q2.7-.022 4.957-.055t3.852-.1a17.688 17.688 0 002.166-.175L105.4 6.673a16.144 16.144 0 00-1.685-.35q-.833-.13-2.025-.251a27.416 27.416 0 00-2.746-.121q-.525 0-1.259.033t-1.411.077l-1.6.087V18.1q2.254-.022 4.071-.131t3.086-.219q1.488-.132 2.626-.306l-.679 3.173q-1.509-.2-3.085-.372-1.357-.153-2.955-.274t-3.064-.12v13.718q2.583 0 4.749-.218t3.786-.5q1.882-.306 3.436-.722l-.635 3.545c-.175-.014-.437-.029-.787-.043s-.741-.03-1.171-.044-.883-.026-1.357-.033l-1.346-.022c-.423-.007-.8-.015-1.127-.022s-.565-.011-.711-.011h-9.447v-.087q.13-.46.251-1.138t.208-1.685q.088-1.008.132-2.4t.043-3.25V12.692q0-1.862-.043-3.25t-.132-2.408q-.087-1.017-.208-1.7T90.064 4.2v-.087q2.734 0 5.438-.022" fill="#4d484a"/><path data-name="パス 14021" d="M113.261 4.113L135.8 28.1V12.692q0-1.86-.044-3.25t-.131-2.407q-.087-1.018-.208-1.7a11.351 11.351 0 00-.252-1.138v-.084h3.9V4.2a9.921 9.921 0 00-.241 1.138q-.11.678-.2 1.7t-.131 2.407q-.044 1.389-.044 3.25v23.238h-.766l-22.54-23.963v14.969q0 1.86.044 3.249t.131 2.4q.087 1.007.2 1.685a10.015 10.015 0 00.241 1.138v.087h-3.9v-.087a11.479 11.479 0 00.252-1.138q.12-.678.208-1.685t.131-2.4q.044-1.389.044-3.249V12.692q0-1.86-.044-3.25t-.131-2.407q-.087-1.018-.208-1.7a11.351 11.351 0 00-.251-1.135v-.087z" fill="#4d484a"/><path data-name="パス 14022" d="M167.6 12.691q0-1.86-.044-3.25t-.131-2.407q-.087-1.018-.2-1.7a9.968 9.968 0 00-.241-1.138v-.084h3.9V4.2a11.415 11.415 0 00-.252 1.138q-.12.678-.2 1.7t-.132 2.403q-.055 1.391-.055 3.25v11.818a14.194 14.194 0 01-.9 5.339 9.507 9.507 0 01-2.495 3.622 9.8 9.8 0 01-3.83 2.057 17.49 17.49 0 01-4.88.646 19 19 0 01-4.935-.613 10.636 10.636 0 01-3.983-1.98 9.285 9.285 0 01-2.659-3.546 13.088 13.088 0 01-.963-5.307V12.691q0-1.86-.044-3.25t-.131-2.407q-.087-1.018-.208-1.7a11.41 11.41 0 00-.252-1.138v-.084h5.253V4.2a11.415 11.415 0 00-.252 1.138q-.12.678-.208 1.7t-.131 2.407q-.043 1.391-.044 3.25v12.273a10.347 10.347 0 00.777 4.3 7.1 7.1 0 002.046 2.692 7.489 7.489 0 002.889 1.39 14.055 14.055 0 006.609 0 7.4 7.4 0 002.878-1.39 7.15 7.15 0 002.035-2.692 10.347 10.347 0 00.777-4.3z" fill="#4d484a"/><g data-name="グループ 1032"><g data-name="グループ 1031"><g data-name="グループ 1030" clip-path="url(#c)" opacity=".99"><path data-name="パス 14023" d="M202.021 6.184c-.043.121-.09.24-.137.359l-.2.316c-.2.33-.4.663-.613.989l-.476.733c-.118.126-.239.249-.36.372-.337.325-.677.65-1.034.954a7.07 7.07 0 01-.594.469c-.188.129-.38.249-.576.365-.315.17-.641.313-.972.452-.075.032-.152.063-.227.1a1.04 1.04 0 00-.379.276.779.779 0 00-.151.35.552.552 0 00.009.221.871.871 0 00.074.221 1 1 0 00.288.337 1.407 1.407 0 00.364.2 4.516 4.516 0 00.667.176 2.835 2.835 0 00.296.026 3.29 3.29 0 00.4.011 4.639 4.639 0 00.612-.055c.088-.014.175-.038.262-.059a3.062 3.062 0 00.373-.11 4.3 4.3 0 001.142-.646c.138-.111.268-.23.393-.353l.036-.009a3.012 3.012 0 00.848-.434 4.65 4.65 0 00.654-.584 3.69 3.69 0 00.4-.491c.132-.188.258-.377.383-.571a11.9 11.9 0 00.679-1.226c.045-.093.083-.189.125-.283s.077-.174.106-.263c.046-.134.1-.268.131-.405l.088-.335a4.573 4.573 0 00.1-.583 5.618 5.618 0 00.032-.608c0-.2 0-.4-.012-.6 0-.107-.021-.215-.032-.321a4.818 4.818 0 00-.154-.761 6.449 6.449 0 00-.414-1.08 7.554 7.554 0 00-.253-.48 6.017 6.017 0 00-.19-.321 1.365 1.365 0 00-.272-.346.474.474 0 00-.354-.1.505.505 0 00-.126.031.745.745 0 00-.2.136.284.284 0 00-.075-.031.248.248 0 00-.087-.01.068.068 0 00-.055.034.46.46 0 00-.049.193.692.692 0 00.026.2 3.427 3.427 0 01.039.73c-.006.2-.016.393-.028.589s-.045.4-.075.6a8.547 8.547 0 01-.254 1.094 15.59 15.59 0 01-.175.529" fill="#534741"/></g></g></g><g data-name="グループ 1035"><g data-name="グループ 1034"><g data-name="グループ 1033" clip-path="url(#d)" opacity=".99"><path data-name="パス 14024" d="M191.164 7.259q.117.234.249.459c.054.123.125.241.188.359a4.4 4.4 0 00.485.722 3.325 3.325 0 00.31.329c.044.045.088.09.134.133a1.686 1.686 0 00.37.245.868.868 0 00.158.063 2.2 2.2 0 00.745.352 1.3 1.3 0 00.709-.025 1.167 1.167 0 00.166-.008.818.818 0 00.152-.036 1.975 1.975 0 00.306-.026.4.4 0 00.34-.234.289.289 0 00-.034-.293c-.021-.022-.041-.045-.063-.065V9.22a.847.847 0 00-.062-.42c.006-.02.013-.041.017-.061a.954.954 0 000-.272.973.973 0 00-.07-.247l-.06-.154a3.478 3.478 0 00-.348-.636 5.807 5.807 0 00-.372-.512l-.048-.059a6.479 6.479 0 00-.151-.229 7.336 7.336 0 00-.886-1c-.064-.064-.138-.12-.207-.179a3.448 3.448 0 00-.353-.268c-.075-.05-.153-.1-.232-.14a.375.375 0 00-.117-.048 1.81 1.81 0 00-.067-.06 1.131 1.131 0 00-.385-.224.812.812 0 00-.351-.044.562.562 0 00-.188.055.793.793 0 00-.358.395 1.16 1.16 0 00-.07.211.929.929 0 00-.163.355 1.464 1.464 0 00-.037.4 2.408 2.408 0 00.054.464 3.034 3.034 0 00.232.713" fill="#534741"/></g></g></g><g data-name="グループ 1041"><g data-name="グループ 1040"><g data-name="グループ 1039" clip-path="url(#e)" opacity=".99"><path data-name="パス 14026" d="M196.8 7.2a1.278 1.278 0 00-.157-.047.588.588 0 00-.313.035.641.641 0 00-.145.085l-.046.043a.769.769 0 00-.187-.011.575.575 0 00-.291 1.022 1.167 1.167 0 00.23.126l.046.021c.036.016.073.03.11.043a1.2 1.2 0 00.367.481 1.712 1.712 0 00.753.3l.086.011a.463.463 0 00.289.181.736.736 0 00.532-.179c.069-.045.136-.094.2-.142.137-.1.268-.2.4-.315.3-.255.586-.522.86-.8a4.384 4.384 0 00.657-.881 4.844 4.844 0 00.428-1.05l-.015.048c.01-.03.018-.061.027-.091v-.006l.033-.115a2.35 2.35 0 00-.023.079 4.877 4.877 0 00.141-.669 3.3 3.3 0 00.01-.925 2.9 2.9 0 00-.295-.873 4.209 4.209 0 00-.38-.631 1.763 1.763 0 00-1.009-.778.565.565 0 00-.073-.007 1.012 1.012 0 00-.16 0 1.174 1.174 0 00-.145.031.479.479 0 00-.239.176.633.633 0 00-.114.417.612.612 0 00.19.389 8.692 8.692 0 01-.059.7 8.123 8.123 0 01-.214 1.035c-.065.217-.135.432-.211.647a4.251 4.251 0 01-.319.684 4.566 4.566 0 01-.505.648 3.514 3.514 0 01-.42.337L196.8 7.2" fill="#534741"/></g></g></g><g data-name="グループ 1044"><g data-name="グループ 1043"><g data-name="グループ 1042" clip-path="url(#f)" opacity=".99"><path data-name="パス 14027" d="M195.727 5.7a.679.679 0 00.333-.331.656.656 0 000-.485 1.166 1.166 0 00-.3-.4 1.277 1.277 0 00-.1-.093 1.273 1.273 0 00-.17-.408 1.965 1.965 0 00-.409-.445 1.607 1.607 0 00-.357-.217 1.773 1.773 0 00-.266-.081 1.255 1.255 0 00-.221-.011h-.016a.79.79 0 00-.173.04.869.869 0 00-.3.228.772.772 0 00-.149.349.846.846 0 000 .275 1.925 1.925 0 00.059.247 2.085 2.085 0 00.481.859 3.315 3.315 0 00.245.244 1.427 1.427 0 00.431.252 1.182 1.182 0 00.912-.024" fill="#534741"/></g></g></g><g data-name="グループ 1047"><g data-name="グループ 1046"><g data-name="グループ 1045" clip-path="url(#g)" opacity=".99"><path data-name="パス 14028" d="M197.014 5.655a.376.376 0 00.365-.107.863.863 0 00.19-.249.97.97 0 00.073-.262 4.157 4.157 0 00.112-.935 1.747 1.747 0 00-.083-.5 1.718 1.718 0 00-.194-.394.576.576 0 00-.387-.279.66.66 0 00-.148 0 .2.2 0 00-.171.1.5.5 0 00-.031.236.7.7 0 00.129.339 1.658 1.658 0 01.092.227 1.479 1.479 0 01.025.239 4.21 4.21 0 01-.152.824.8.8 0 00-.037.4.483.483 0 00.217.357" fill="#534741"/></g></g></g><g data-name="グループ 1050"><g data-name="グループ 1049"><g data-name="グループ 1048" clip-path="url(#h)" opacity=".99"><path data-name="パス 14029" d="M198.181.881a.634.634 0 00.2.044l.114.006h.02a.41.41 0 00.148.235.944.944 0 00.39.126c.133.03.267.059.4.1a3.584 3.584 0 01.572.24c.1.073.186.15.274.232a1.991 1.991 0 01.2.273 4.074 4.074 0 01.19.5c.053.157.111.313.157.472.023.11.036.222.05.335a.561.561 0 00.2.375l.016.011a.418.418 0 00.127.087.387.387 0 00.2.031.383.383 0 00.13-.038l.041-.015a.847.847 0 00.45-.69 2.228 2.228 0 00-.02-.7 2.281 2.281 0 00-.24-.65 3.308 3.308 0 00-.383-.58 3.667 3.667 0 00-.48-.475 3.129 3.129 0 00-.545-.359 3.221 3.221 0 00-.633-.232 5.853 5.853 0 00-.839-.179 4.169 4.169 0 00-.547-.03h-.041a.662.662 0 00-.311.138.511.511 0 00-.187.292c-.051.2.181.391.347.449" fill="#534741"/></g></g></g><g data-name="グループ 1053"><g data-name="グループ 1052"><g data-name="グループ 1051" clip-path="url(#i)" opacity=".99"><path data-name="パス 14030" d="M190.484 9.181c-.056-.124-.19-.294-.328-.278h-.006a.461.461 0 00-.318.27.955.955 0 00-.056.48 2.085 2.085 0 00.254.893 3.245 3.245 0 00.243.382 3.047 3.047 0 00.222.258 6.047 6.047 0 00.584.547 4.807 4.807 0 001.288.765 7.37 7.37 0 00.782.271 1.711 1.711 0 00.739.057.838.838 0 00.559-.277.664.664 0 00.14-.449.53.53 0 00-.064-.226.507.507 0 00.061-.294v-.01a.568.568 0 00-.008-.072.478.478 0 00.045-.424.636.636 0 00-.592-.338c-.19-.014-.385-.005-.576 0h-.024a5.435 5.435 0 01-.212-.081 5.93 5.93 0 01-.6-.3l.124.075-.165-.1a5.993 5.993 0 01-.7-.506c-.2-.167-.409-.333-.6-.518l-.062-.064a.748.748 0 00-.153-.1.677.677 0 00-.188-.065.441.441 0 00-.144-.006.514.514 0 00-.211.076.2.2 0 00-.04.033" fill="#534741"/></g></g></g><g data-name="グループ 1056"><g data-name="グループ 1055"><g data-name="グループ 1054" clip-path="url(#j)" opacity=".99"><path data-name="パス 14031" d="M199.229 13.84l.029-.007-.025.006h-.014.01" fill="#534741"/></g></g></g><g data-name="グループ 1059"><g data-name="グループ 1058"><g data-name="グループ 1057" clip-path="url(#k)" opacity=".99"><path data-name="パス 14032" d="M192.257 2.655a.269.269 0 00.111.127.5.5 0 00.188.325l.111.067a.5.5 0 00.263.039.476.476 0 00.343-.189.831.831 0 00.086-.147l.042-.1a3.936 3.936 0 01.507-.635 2.508 2.508 0 01.344-.266 2.66 2.66 0 01.272-.109 3.93 3.93 0 01.406-.059.572.572 0 00.247.22.735.735 0 00.8-.128.742.742 0 00.265-.437.779.779 0 00-.05-.408.416.416 0 00-.126-.476.451.451 0 00-.091-.055.438.438 0 00-.1-.031.444.444 0 00-.09 0h-.044a.854.854 0 00-.1.018c-.055.012-.11.026-.164.041l-.046.008a2.677 2.677 0 00-.282-.005 2.025 2.025 0 00-.219.013.823.823 0 00-.463.179q-.253.058-.5.136c-.075.024-.148.058-.221.087s-.14.059-.207.094a3.5 3.5 0 00-.362.208 1.672 1.672 0 00-.42.423 5.242 5.242 0 00-.274.447 2.873 2.873 0 00-.208.4.276.276 0 00-.025.075.261.261 0 00.015.138" fill="#534741"/></g></g></g><g data-name="グループ 1062"><g data-name="グループ 1061"><g data-name="グループ 1060" clip-path="url(#l)" opacity=".99"><path data-name="パス 14033" d="M188.671 8.938a.545.545 0 00.54-.057.537.537 0 00.166-.211.636.636 0 00.041-.308c0-.1-.013-.206-.02-.308q-.013-.184-.015-.369v-.047c0-.057 0-.113.007-.169l.026.01c.229.088.4-.082.5-.27a.941.941 0 00.066-.552 3.89 3.89 0 01-.015-.341c.007-.133.019-.265.037-.4.01-.08.026-.16.042-.239a2.079 2.079 0 00.053-.27.458.458 0 00-.161-.407.478.478 0 00-.307-.1.224.224 0 00-.162-.124.276.276 0 00-.076 0 .49.49 0 00-.27.13.7.7 0 00-.175.233l-.076.161c-.093.193-.2.38-.3.57a3.155 3.155 0 00-.242.575 3.527 3.527 0 00-.148.641 4.181 4.181 0 00-.013.725 2.415 2.415 0 00.146.718.7.7 0 00.357.411" fill="#534741"/></g></g></g><g data-name="グループ 1065"><g data-name="グループ 1064"><g data-name="グループ 1063" clip-path="url(#m)" opacity=".99"><path data-name="パス 14034" d="M187.794 11.956a3.607 3.607 0 00.459.706 7.062 7.062 0 00.5.607c.048.051.1.1.148.149a3.356 3.356 0 00.4.38 6.612 6.612 0 00.821.561l.064.046a2.038 2.038 0 00.631.309c.042.018.085.036.127.052a.694.694 0 00.566.006 1.1 1.1 0 00.366-.076.579.579 0 00.353-.6.627.627 0 00-.377-.492l-.216-.1c-.093-.049-.183-.1-.274-.151a9.393 9.393 0 01-1.016-.749c-.16-.135-.313-.278-.47-.418s-.3-.261-.438-.4a3.5 3.5 0 01-.337-.464c-.021-.043-.043-.086-.063-.13l-.027-.056-.051-.162a21.97 21.97 0 00-.114-.459.575.575 0 00-.448-.395.594.594 0 00-.146 0 .564.564 0 00-.4.233 1.183 1.183 0 00-.147.282 3.286 3.286 0 00-.066.235 1.379 1.379 0 00-.022.286 1.593 1.593 0 00.039.357 2.113 2.113 0 00.136.442" fill="#534741"/></g></g></g><g data-name="グループ 1068"><g data-name="グループ 1067"><g data-name="グループ 1066" clip-path="url(#n)" opacity=".99"><path data-name="パス 14035" d="M204.711 11.868a3.96 3.96 0 00.331-.472 3.135 3.135 0 00.282-.615.851.851 0 00.043-.229.8.8 0 00-.067-.331.445.445 0 00-.253-.257.218.218 0 00-.1-.009.481.481 0 00-.254.137.8.8 0 00-.224.389c-.021.1-.044.19-.074.284-.006.022-.015.044-.023.066h-.041a.385.385 0 00-.221.105 1.075 1.075 0 00-.139.17c-.027.038-.053.076-.081.113a2.93 2.93 0 01-.208.238c-.17.16-.345.314-.516.474-.2.19-.4.39-.6.588a3.886 3.886 0 01-.6.448 6.777 6.777 0 01-1.3.463c-.24.069-.481.135-.722.2-.224.064-.447.134-.671.194l-.019.005h-.008l-.023.006-.021.005h.011l-.032.009.046-.013h.008a6.159 6.159 0 01-1.286.113c-.167-.043-.333-.09-.5-.137s-.343-.109-.511-.171a.772.772 0 00-.367-.041.7.7 0 00-.414-.306 1.245 1.245 0 00-.3-.048 1.143 1.143 0 00-.226.006 2.307 2.307 0 00-.163.027.876.876 0 00-.146.045 1.432 1.432 0 00-.195.02.749.749 0 00-.166.054.68.68 0 00-.15.1.17.17 0 00-.03.03.568.568 0 00-.453.117.4.4 0 00-.078.1.729.729 0 00-.3-.042.468.468 0 00-.408.392 1.05 1.05 0 00.117.5 2.381 2.381 0 00.194.408 1.7 1.7 0 00.437.466 3.312 3.312 0 00.567.352 2.762 2.762 0 00.674.222 4.4 4.4 0 00.619.057 10.639 10.639 0 001.406 0c.444-.034.884-.092 1.324-.155a12.308 12.308 0 001.372-.267 5.719 5.719 0 001.228-.485c.225-.121.445-.246.657-.388a3.613 3.613 0 00.474-.409c.264-.253.509-.527.753-.8a7.886 7.886 0 00.635-.787c.11-.16.217-.323.319-.49.131-.147.263-.3.382-.451m-2.14.653l-.007.006-.087.085.094-.091m-3.4 1.332h.019l-.027.006h.008m-.018.005l-.051.013h.009l.058-.014" fill="#534741"/></g></g></g><g data-name="グループ 1071"><g data-name="グループ 1070"><g data-name="グループ 1069" clip-path="url(#o)" opacity=".99"><path data-name="パス 14036" d="M194.015 19.6c.092-.134.173-.265.248-.4a4.381 4.381 0 00.216-.459 6.848 6.848 0 00.276-.784 1.767 1.767 0 00.087-.441 1.149 1.149 0 00-.007-.131.4.4 0 00-.092-.214.354.354 0 00-.235-.112.328.328 0 00-.1 0 .845.845 0 00-.161.039 7.717 7.717 0 00-.806.35l-.065.032c-.255.122-.518.257-.782.4a9.894 9.894 0 00-1.5 1.075l-.087.072c-.13.107-.261.215-.4.319-.177.134-.357.265-.536.394l-.017.012.012-.006c-.074.05-.147.1-.22.153l-.186.131.072-.119c.149-.258.291-.487.435-.7.222-.329.461-.652.691-.965.109-.147.218-.294.325-.442.119-.165.278-.382.449-.593.1-.113.2-.218.3-.321.06-.06.12-.119.178-.181a.684.684 0 00.076-.093.27.27 0 00.013-.264.311.311 0 00-.314-.154l-.075.006a1.288 1.288 0 00-.386.114 3.836 3.836 0 00-.755.513c-.161.129-.314.265-.463.4l-.178.157a4.923 4.923 0 00-.565.451c-.119.105-.23.222-.338.334l-.059.062a7.95 7.95 0 00-.379.43l-.026.033a9.243 9.243 0 00-1.024 1.439 9.118 9.118 0 00-.717 1.7 4.741 4.741 0 00-.107.463 4.124 4.124 0 00-.069.514 2.315 2.315 0 00.01.439.342.342 0 00.148.217.318.318 0 00.212.047.312.312 0 00.044-.009.566.566 0 00.11-.046l.045-.022c.171-.055.347-.1.518-.14l.184-.045c.263-.066.53-.146.793-.237.224-.079.446-.16.668-.243l.14-.051.032-.012c.147-.054.3-.11.444-.175s.283-.132.423-.2l.752-.373a6.01 6.01 0 00.812-.486c.119-.086.246-.18.369-.283s.241-.214.348-.315q.309-.292.611-.592a4.67 4.67 0 00.6-.689" fill="#534741"/></g></g></g><g data-name="グループ 1074"><g data-name="グループ 1073"><g data-name="グループ 1072" clip-path="url(#p)" opacity=".99"><path data-name="パス 14037" d="M214.845 16.339a.262.262 0 000-.079.516.516 0 00-.046-.157l-.01-.026c-.041-.1-.086-.2-.131-.306a12.85 12.85 0 00-.324-.684 5.669 5.669 0 00-.435-.676 5.468 5.468 0 00-.478-.564c-.025-.027-.052-.051-.079-.077l-.049-.045a2.053 2.053 0 00-.178-.15l-.032-.025c-.081-.063-.164-.128-.252-.186a5.769 5.769 0 00-.645-.376l-.067-.032c-.1-.049-.206-.1-.311-.142s-.234-.094-.353-.139c-.242-.09-.5-.162-.739-.227a8.494 8.494 0 00-1.555-.262 2.572 2.572 0 00-.35 0h-.03a4.372 4.372 0 00-.281.023c-.04 0-.079.009-.117.016a7.16 7.16 0 00-.718.16 5.148 5.148 0 00-.633.223l-.192.077c-.132.053-.268.107-.4.171a3.093 3.093 0 00-.549.371 3.517 3.517 0 00-.113.094.494.494 0 00-.124.18.365.365 0 00-.027.095.684.684 0 00-.192.394.412.412 0 00.2.345.565.565 0 00.263.08c.059.007.118.009.178.012.038 0 .077 0 .115.006l.145.011c.056.006.113.01.169.014a3.133 3.133 0 00.388-.009 4.46 4.46 0 01.257-.012c.154 0 .31.006.462.013l.22.01c.229.008.458.033.671.06l.2.026c.133.018.264.036.4.048a7.56 7.56 0 00-.721.127c-.481.108-.962.24-1.427.368-.236.065-.472.13-.707.184l-.088.02c-.21.049-.427.1-.638.155a3.992 3.992 0 00-.452.151 1 1 0 00-.16.075.318.318 0 00-.145.169.272.272 0 000 .155l.008.021v.03a.435.435 0 00.032.2 1.347 1.347 0 00.173.266 3.866 3.866 0 00.5.523 3.59 3.59 0 00.605.454 4.025 4.025 0 00.747.331 6.568 6.568 0 00.728.19c.255.054.518.1.783.127a11.651 11.651 0 001.506.088 9.781 9.781 0 00.984-.063c.2-.023.389-.051.575-.086.228-.041.456-.1.677-.153l.049-.012c.193-.048.446-.114.695-.2.225-.078.449-.167.664-.266.194-.089.379-.19.584-.3a5.166 5.166 0 00.553-.339.576.576 0 00.176-.19.277.277 0 00.034-.2l-.007-.022c0-.016.007-.032.01-.05" fill="#534741"/></g></g></g><g data-name="グループ 1077"><g data-name="グループ 1076"><g data-name="グループ 1075" clip-path="url(#q)" opacity=".99"><path data-name="パス 14038" d="M203.89 16.537a.812.812 0 00-.131 0 .931.931 0 00-.306.1c-.123.062-.245.124-.365.189-.094.049-.185.1-.274.158a.766.766 0 00-.3.119c-.168.093-.334.187-.5.285a4.9 4.9 0 00-.936.757 13.794 13.794 0 00-1.256 1.473 2.388 2.388 0 00-.472-1.642 1.863 1.863 0 00-.678-.518 1.885 1.885 0 00-.658-.112 3.319 3.319 0 00-.573.011 2.1 2.1 0 00-.664.185 1.254 1.254 0 00-.167.1.944.944 0 00-.178.168 1.233 1.233 0 00-.155.223 1.148 1.148 0 00-.1.211.5.5 0 00-.172.164.373.373 0 00-.05.178.167.167 0 00.006.063c0 .008.005.027.014.031a.282.282 0 00.208 0 .781.781 0 00.2-.1 3.262 3.262 0 01.342-.126c.1-.034.206-.066.311-.09a2.66 2.66 0 01.479-.038c.051 0 .1.007.153.013a1.75 1.75 0 01.317.072 1.683 1.683 0 01.315.157 3.064 3.064 0 01.473.423c.023.028.044.058.066.086v.058a4.936 4.936 0 01-.09.907c-.052.306-.1.611-.169.914a7.253 7.253 0 01-.214.71 2.082 2.082 0 00-.008-.306 2.633 2.633 0 00-.027-.178.833.833 0 00-.219-.446 1.112 1.112 0 00-.134-.113.663.663 0 00-.1-.06.328.328 0 00-.178-.025.311.311 0 00-.044.008.459.459 0 00.072.167.372.372 0 00.07.073l.085.081a.839.839 0 01.073.1.823.823 0 01.06.156 2.226 2.226 0 01.041.5c0 .046 0 .092-.007.137s-.011.118-.016.176c-.01.1-.024.2-.036.3s-.03.216-.049.324c-.015.091-.036.18-.057.27-.1.188-.191.376-.293.56-.119.217-.239.433-.354.651-.068.131-.13.264-.189.4v.006l-.009.014-.006.009.019-.03-.019.032-.008.015-.05.084.006-.009-.015.024a12.75 12.75 0 00-.356.636c-.1.189-.2.375-.312.56s-.223.355-.335.533-.227.359-.346.536-.252.372-.365.569c-.1.179-.193.364-.288.547-.086.165-.178.327-.252.5-.04.092-.077.184-.118.276s-.083.173-.125.259c-.085.178-.156.362-.241.54-.043.092-.093.183-.137.275a.444.444 0 00-.02.392c.015.026.03.054.064.059a.285.285 0 00.129-.015.458.458 0 00.23-.172c.1-.136.19-.279.277-.424l-.014.023.046-.077.012-.019.015-.025-.008.013.024-.041.006-.009.022-.037v.007l.014-.023-.015.025c.1-.161.206-.318.3-.483.015-.025.029-.051.043-.078s.055-.07.083-.1c.059-.076.116-.153.178-.227s.12-.144.182-.215.131-.139.191-.212.12-.15.172-.23.118-.185.172-.28c.091-.16.167-.327.258-.487s.2-.293.295-.44a3.238 3.238 0 00.311-.584l.134-.343c.1-.114.207-.226.313-.338.237-.253.477-.5.723-.746.236-.227.481-.444.725-.662.131-.117.26-.235.4-.344a3.121 3.121 0 01.361-.243 2.876 2.876 0 01.5-.2c.042-.008.083-.016.126-.021a.515.515 0 00.312-.159.217.217 0 00.065-.157.32.32 0 00-.133-.206.727.727 0 00-.538-.095h-.007a2.767 2.767 0 00-.457.1 2.058 2.058 0 00-.355.151 2.5 2.5 0 00-.421.267c-.1.08-.2.166-.295.253.063-.117.127-.232.189-.349.089-.163.169-.33.25-.5l.12-.248.059-.092c.119-.183.239-.365.356-.549s.236-.392.346-.593l.044-.084c.107-.13.215-.26.327-.386.055-.057.112-.112.167-.167l.255-.193c.285-.213.567-.428.853-.637.108-.08.218-.153.333-.222a1.423 1.423 0 01.207-.093l.115-.038c.067-.022.136-.039.2-.058l.182-.049a.344.344 0 00.206-.177.361.361 0 00-.263-.065h-.03c-.086.016-.174.029-.261.046a3.92 3.92 0 00-.188.04c.416-.334.838-.66 1.284-.954.131-.082.269-.154.408-.224.115-.058.236-.111.349-.174a.787.787 0 00.352-.388.554.554 0 00.037-.161.659.659 0 000-.133.479.479 0 00-.193-.3.59.59 0 00-.321-.114" fill="#534741"/></g></g></g><g data-name="グループ 1083"><g data-name="グループ 1082"><g data-name="グループ 1081" clip-path="url(#r)" opacity=".99"><path data-name="パス 14040" d="M194.875 29.476l-.013.022-.005.008V29.5l-.016.027.018-.03.014-.023-.008.014.009-.016" fill="#534741"/></g></g></g><g data-name="グループ 1086"><g data-name="グループ 1085"><g data-name="グループ 1084" clip-path="url(#s)" opacity=".99"><path data-name="パス 14041" d="M196.97 24.572l-.02.034v-.007l-.016.027.032-.055-.01.018.01-.017" fill="#534741"/></g></g></g><g data-name="グループ 1092"><g data-name="グループ 1091"><g data-name="グループ 1090" clip-path="url(#t)" opacity=".99"><path data-name="パス 14044" d="M197.046 24.448l-.016.025.013-.023" fill="#534741"/></g></g></g><g data-name="グループ 1095"><g data-name="グループ 1094"><g data-name="グループ 1093" clip-path="url(#u)" opacity=".99"><path data-name="パス 14045" d="M194.8 29.6l.021-.035-.021.035" fill="#534741"/></g></g></g><path data-name="パス 14046" d="M189 31.8c.8-1.085.638-2.447-.8-2.721-1.192-.338-2.2.93-2.346 2.124-.169 3.489 2.885 3.556 5.377 2.457 3.808-1.664 6.352-5.347 9.624-7.9 3.394-2.649 8.983-3.85 12.5-.746 2.867 2.8 2.738 8.314-1.046 10.219-2.791 1.39-7.892.8-7.7-3.181a3.7 3.7 0 015.759-3.163.863.863 0 01-.84 1.508c-2.228-1.556-4.141 1.272-2.878 3.1.57.716 2.006.91 3.238.826 4.319-.17 5.183-5.672 2.523-8.346-1.756-1.758-4.818-1.748-7.32-1.1-2.576.7-4.643 2.589-6.637 4.536-2.73 2.6-5.989 5.771-10.107 5.78-3.119.111-4.4-4.183-2.264-6.184a2.46 2.46 0 014.065.911 2.9 2.9 0 01-.581 2.257.34.34 0 01-.57-.37L189 31.8" fill="#4d484a"/><g data-name="グループ 1216"><g data-name="グループ 1215"><g data-name="グループ 1098"><g data-name="グループ 1097"><g data-name="グループ 1096" clip-path="url(#v)" opacity=".99"><path data-name="パス 14047" d="M13.319 6.184c.043.121.09.24.137.359l.195.316c.2.33.4.663.613.989l.476.733c.118.126.239.249.36.372.337.325.677.65 1.034.954a7.072 7.072 0 00.594.469c.188.129.38.249.576.365.315.17.641.313.972.452.075.032.152.063.227.1a1.04 1.04 0 01.379.276.779.779 0 01.151.35.552.552 0 01-.009.221.871.871 0 01-.074.221 1 1 0 01-.288.337 1.407 1.407 0 01-.364.2 4.517 4.517 0 01-.667.176 2.835 2.835 0 01-.292.033 3.29 3.29 0 01-.4.011 4.639 4.639 0 01-.612-.055c-.088-.014-.175-.038-.262-.059a3.062 3.062 0 01-.373-.11 4.3 4.3 0 01-1.142-.646 5.284 5.284 0 01-.393-.353l-.036-.009a3.012 3.012 0 01-.848-.434 4.715 4.715 0 01-.655-.584 3.762 3.762 0 01-.4-.491 17.213 17.213 0 01-.383-.571 11.9 11.9 0 01-.679-1.226c-.045-.093-.083-.189-.125-.283s-.077-.174-.106-.263c-.046-.134-.1-.268-.131-.405a41.347 41.347 0 00-.088-.335 4.572 4.572 0 01-.1-.583 5.615 5.615 0 01-.032-.608c0-.2 0-.4.012-.6 0-.107.021-.215.032-.321a4.818 4.818 0 01.154-.761 6.449 6.449 0 01.414-1.08c.077-.164.165-.323.253-.48.061-.109.123-.217.19-.321a1.365 1.365 0 01.272-.346.474.474 0 01.354-.1.505.505 0 01.126.031.745.745 0 01.2.136.284.284 0 01.075-.031.248.248 0 01.087-.01.068.068 0 01.055.034.46.46 0 01.049.193.693.693 0 01-.026.2 3.426 3.426 0 00-.039.73c.006.2.016.393.028.589s.045.4.075.6a8.547 8.547 0 00.254 1.094c.056.178.113.354.175.529" fill="#534741"/></g></g></g><g data-name="グループ 1101"><g data-name="グループ 1100"><g data-name="グループ 1099" clip-path="url(#w)" opacity=".99"><path data-name="パス 14048" d="M24.177 7.259q-.117.234-.249.459c-.054.123-.125.241-.188.359a4.4 4.4 0 01-.485.722 3.323 3.323 0 01-.31.329c-.044.045-.088.09-.134.133a1.686 1.686 0 01-.37.245.868.868 0 01-.158.063 2.2 2.2 0 01-.745.352 1.3 1.3 0 01-.709-.025 1.167 1.167 0 01-.166-.008.818.818 0 01-.152-.036 1.975 1.975 0 01-.306-.026.4.4 0 01-.34-.234.289.289 0 01.035-.292c.021-.022.041-.045.063-.065v-.014a.846.846 0 01.062-.42c-.006-.02-.013-.041-.017-.061a.954.954 0 010-.272.973.973 0 01.07-.247l.06-.154a3.478 3.478 0 01.348-.636 5.806 5.806 0 01.372-.512l.048-.059c.049-.078.1-.155.151-.229a7.336 7.336 0 01.886-1c.064-.064.138-.12.207-.179a3.448 3.448 0 01.35-.272c.075-.05.153-.1.232-.14a.375.375 0 01.117-.048 1.81 1.81 0 01.067-.06 1.131 1.131 0 01.385-.224.812.812 0 01.351-.044.562.562 0 01.188.055.793.793 0 01.358.395 1.087 1.087 0 01.069.211.916.916 0 01.164.355 1.463 1.463 0 01.037.4 2.409 2.409 0 01-.054.464 3.035 3.035 0 01-.232.713" fill="#534741"/></g></g></g><g data-name="グループ 1107"><g data-name="グループ 1106"><g data-name="グループ 1105" clip-path="url(#x)" opacity=".99"><path data-name="パス 14050" d="M18.535 7.2a1.278 1.278 0 01.157-.047.588.588 0 01.308.036.641.641 0 01.145.085l.046.043a.769.769 0 01.187-.011.575.575 0 01.291 1.022 1.167 1.167 0 01-.23.126l-.046.021c-.036.016-.073.03-.11.043a1.2 1.2 0 01-.362.482 1.712 1.712 0 01-.753.3l-.086.011a.463.463 0 01-.289.181.736.736 0 01-.532-.179 3.756 3.756 0 01-.2-.142 5.81 5.81 0 01-.4-.315c-.3-.255-.586-.522-.86-.8a4.384 4.384 0 01-.657-.881 4.845 4.845 0 01-.428-1.05l.015.048c-.01-.03-.018-.061-.027-.091v-.006l-.033-.115.023.079a4.878 4.878 0 01-.141-.669 3.3 3.3 0 01-.01-.925 2.9 2.9 0 01.3-.873 4.21 4.21 0 01.38-.631 1.763 1.763 0 011.009-.778.565.565 0 01.073-.007 1.012 1.012 0 01.16 0 1.174 1.174 0 01.145.031.479.479 0 01.239.176.633.633 0 01.114.417.612.612 0 01-.19.389c.011.233.029.467.059.7a8.123 8.123 0 00.214 1.035c.065.217.135.432.211.647a4.25 4.25 0 00.319.684 4.566 4.566 0 00.5.648c.084.078.17.154.262.224.051.039.1.077.158.113l.038-.02" fill="#534741"/></g></g></g><g data-name="グループ 1110"><g data-name="グループ 1109"><g data-name="グループ 1108" clip-path="url(#y)" opacity=".99"><path data-name="パス 14051" d="M19.614 5.7a.679.679 0 01-.333-.331.656.656 0 010-.485 1.165 1.165 0 01.3-.4c.031-.032.064-.063.1-.093a1.273 1.273 0 01.17-.408 1.965 1.965 0 01.409-.445 1.607 1.607 0 01.357-.217 1.738 1.738 0 01.266-.081 1.255 1.255 0 01.221-.011h.016a.79.79 0 01.173.04.869.869 0 01.3.228.772.772 0 01.149.349.846.846 0 010 .275 1.928 1.928 0 01-.059.247 2.086 2.086 0 01-.481.859 3.317 3.317 0 01-.245.244 1.427 1.427 0 01-.431.252 1.182 1.182 0 01-.912-.024" fill="#534741"/></g></g></g><g data-name="グループ 1113"><g data-name="グループ 1112"><g data-name="グループ 1111" clip-path="url(#z)" opacity=".99"><path data-name="パス 14052" d="M18.327 5.655a.376.376 0 01-.365-.107.863.863 0 01-.19-.249.97.97 0 01-.073-.262 4.157 4.157 0 01-.112-.935 1.746 1.746 0 01.083-.5 1.718 1.718 0 01.194-.394.576.576 0 01.387-.279.66.66 0 01.148 0 .2.2 0 01.171.1.5.5 0 01.031.236.7.7 0 01-.129.339 1.659 1.659 0 00-.092.227 1.479 1.479 0 00-.025.239 4.21 4.21 0 00.152.824.8.8 0 01.037.4.483.483 0 01-.217.357" fill="#534741"/></g></g></g><g data-name="グループ 1116"><g data-name="グループ 1115"><g data-name="グループ 1114" clip-path="url(#A)" opacity=".99"><path data-name="パス 14053" d="M17.16.881a.634.634 0 01-.2.044l-.11.006h-.02a.41.41 0 01-.148.235.944.944 0 01-.39.126c-.133.03-.267.059-.4.1a3.585 3.585 0 00-.572.24c-.095.073-.186.15-.274.232a1.992 1.992 0 00-.2.273 4.075 4.075 0 00-.19.5c-.053.157-.111.313-.157.472-.023.11-.036.222-.05.335a.561.561 0 01-.2.375l-.016.011a.43.43 0 01-.127.087.387.387 0 01-.2.031.383.383 0 01-.13-.038l-.041-.015a.847.847 0 01-.45-.69 2.228 2.228 0 01.02-.7 2.281 2.281 0 01.24-.65 3.308 3.308 0 01.383-.58A3.666 3.666 0 0114.4.8a3.13 3.13 0 01.545-.359 3.221 3.221 0 01.633-.232 5.852 5.852 0 01.843-.179 4.169 4.169 0 01.547-.03h.041a.662.662 0 01.311.14.511.511 0 01.187.292c.051.2-.181.391-.347.449" fill="#534741"/></g></g></g><g data-name="グループ 1119"><g data-name="グループ 1118"><g data-name="グループ 1117" clip-path="url(#B)" opacity=".99"><path data-name="パス 14054" d="M24.857 9.181c.056-.124.19-.294.328-.278h.006a.461.461 0 01.318.27.955.955 0 01.056.48 2.085 2.085 0 01-.254.893 3.243 3.243 0 01-.243.382 3.045 3.045 0 01-.222.258 6.046 6.046 0 01-.584.547 4.807 4.807 0 01-1.288.765 7.37 7.37 0 01-.782.271 1.711 1.711 0 01-.739.057.838.838 0 01-.559-.277.664.664 0 01-.14-.449.53.53 0 01.064-.226.507.507 0 01-.061-.294v-.01a.566.566 0 01.008-.072.478.478 0 01-.045-.424.636.636 0 01.592-.338c.19-.014.385-.005.576 0h.024c.071-.026.142-.052.212-.081a5.929 5.929 0 00.6-.3l-.124.075.165-.1a5.993 5.993 0 00.7-.506c.2-.167.409-.333.6-.518l.062-.064a.748.748 0 01.153-.1.677.677 0 01.188-.065.441.441 0 01.144-.006.514.514 0 01.211.076.2.2 0 01.04.033" fill="#534741"/></g></g></g><g data-name="グループ 1122"><g data-name="グループ 1121"><g data-name="グループ 1120" clip-path="url(#C)" opacity=".99"><path data-name="パス 14055" d="M16.112 13.84l-.029-.007.025.006h.014-.01" fill="#534741"/></g></g></g><g data-name="グループ 1125"><g data-name="グループ 1124"><g data-name="グループ 1123" clip-path="url(#D)" opacity=".99"><path data-name="パス 14056" d="M23.084 2.655a.269.269 0 01-.111.127.5.5 0 01-.188.325l-.111.067a.5.5 0 01-.263.039.476.476 0 01-.343-.189.831.831 0 01-.086-.147l-.042-.1a3.936 3.936 0 00-.507-.635 2.508 2.508 0 00-.344-.266 2.66 2.66 0 00-.272-.109 3.93 3.93 0 00-.406-.059.572.572 0 01-.247.22.735.735 0 01-.8-.128.742.742 0 01-.265-.437.78.78 0 01.05-.408.416.416 0 01.126-.476.45.45 0 01.094-.059.438.438 0 01.1-.031.444.444 0 01.09 0h.044a.854.854 0 01.1.018c.055.012.11.026.164.041l.046.008A2.677 2.677 0 0120.2.45a2.025 2.025 0 01.219.013.823.823 0 01.463.179q.254.058.5.136c.075.024.148.058.221.087s.14.059.207.094a3.5 3.5 0 01.362.208 1.672 1.672 0 01.42.423 5.241 5.241 0 01.274.447 2.874 2.874 0 01.208.4.276.276 0 01.025.075.261.261 0 01-.015.138" fill="#534741"/></g></g></g><g data-name="グループ 1128"><g data-name="グループ 1127"><g data-name="グループ 1126" clip-path="url(#E)" opacity=".99"><path data-name="パス 14057" d="M26.67 8.938a.545.545 0 01-.54-.057.537.537 0 01-.166-.211.636.636 0 01-.041-.308c0-.1.013-.206.02-.308q.013-.184.015-.369v-.047c0-.057 0-.113-.007-.169l-.026.01c-.229.088-.4-.082-.5-.27a.941.941 0 01-.066-.552 3.89 3.89 0 00.015-.341 4.997 4.997 0 00-.037-.4c-.01-.08-.026-.16-.042-.239a2.078 2.078 0 01-.053-.27A.458.458 0 0125.4 5a.478.478 0 01.307-.1.224.224 0 01.162-.124.276.276 0 01.076 0 .49.49 0 01.27.13.7.7 0 01.175.233l.076.161c.093.193.2.38.3.57a3.154 3.154 0 01.242.575 3.526 3.526 0 01.148.641 4.18 4.18 0 01.013.725 2.415 2.415 0 01-.146.718.7.7 0 01-.357.411" fill="#534741"/></g></g></g><g data-name="グループ 1131"><g data-name="グループ 1130"><g data-name="グループ 1129" clip-path="url(#F)" opacity=".99"><path data-name="パス 14058" d="M27.547 11.956a3.608 3.608 0 01-.459.706 7.065 7.065 0 01-.5.607c-.048.051-.1.1-.148.149a3.355 3.355 0 01-.4.38 6.613 6.613 0 01-.821.561l-.064.046a2.038 2.038 0 01-.631.309 3.392 3.392 0 01-.127.052.691.691 0 01-.565.006 1.1 1.1 0 01-.367-.076.579.579 0 01-.353-.6.627.627 0 01.377-.492l.216-.1c.093-.049.183-.1.274-.151A9.392 9.392 0 0025 12.6c.16-.135.313-.278.47-.418s.3-.261.438-.4a3.5 3.5 0 00.337-.464c.021-.043.043-.086.063-.13l.027-.056.051-.162c.037-.154.074-.307.114-.459a.575.575 0 01.448-.395.594.594 0 01.146 0 .564.564 0 01.4.233 1.182 1.182 0 01.147.282c.025.078.047.156.066.235a1.379 1.379 0 01.022.286 1.594 1.594 0 01-.039.357 2.114 2.114 0 01-.136.442" fill="#534741"/></g></g></g><g data-name="グループ 1134"><g data-name="グループ 1133"><g data-name="グループ 1132" clip-path="url(#G)" opacity=".99"><path data-name="パス 14059" d="M11.013 12.318c.1.167.209.33.319.491a7.85 7.85 0 00.634.787c.244.27.49.545.753.8a3.71 3.71 0 00.475.409c.212.141.431.267.656.388a5.779 5.779 0 001.229.485 12.291 12.291 0 001.371.267c.441.063.881.121 1.324.154a10.655 10.655 0 001.407 0 4.278 4.278 0 00.619-.057 2.738 2.738 0 00.673-.221 3.325 3.325 0 00.568-.353 1.687 1.687 0 00.437-.468 2.377 2.377 0 00.193-.408 1.033 1.033 0 00.118-.5.47.47 0 00-.408-.393.713.713 0 00-.3.043.429.429 0 00-.079-.1.57.57 0 00-.453-.117.161.161 0 00-.03-.029.65.65 0 00-.15-.1.731.731 0 00-.166-.053 1.42 1.42 0 00-.194-.021 1.025 1.025 0 00-.147-.044 1.731 1.731 0 00-.163-.027 1.143 1.143 0 00-.226-.006 1.237 1.237 0 00-.3.048.7.7 0 00-.415.305.758.758 0 00-.367.041c-.169.061-.339.119-.511.171s-.332.093-.5.137a6.105 6.105 0 01-1.286-.114h.008l.047.012-.033-.008h.011l-.021-.005-.022-.005h-.009l-.018-.005c-.225-.06-.448-.13-.671-.193-.241-.068-.483-.134-.722-.2a6.631 6.631 0 01-1.3-.463 3.814 3.814 0 01-.595-.448c-.2-.2-.392-.4-.6-.587-.172-.16-.347-.315-.517-.475a2.757 2.757 0 01-.207-.238c-.029-.036-.054-.075-.081-.112a1.194 1.194 0 00-.139-.171.387.387 0 00-.221-.1.189.189 0 00-.041 0l-.024-.066a3.112 3.112 0 01-.073-.284.8.8 0 00-.224-.389.482.482 0 00-.254-.138.224.224 0 00-.1.01.445.445 0 00-.253.257.806.806 0 00-.067.331.891.891 0 00.043.229 3.189 3.189 0 00.283.614 4.045 4.045 0 00.33.473c.12.156.252.3.383.45m1.852.294l-.088-.086-.006-.005.094.091m3.308 1.243l-.026-.007.019.005h.007m.069.017h-.007l-.051-.013.058.014" fill="#534741"/></g></g></g><g data-name="グループ 1137"><g data-name="グループ 1136"><g data-name="グループ 1135" clip-path="url(#H)" opacity=".99"><path data-name="パス 14060" d="M21.326 19.6a4.932 4.932 0 01-.248-.4 4.381 4.381 0 01-.216-.459 6.847 6.847 0 01-.276-.784 1.767 1.767 0 01-.087-.441 1.15 1.15 0 01.007-.131.4.4 0 01.092-.214.354.354 0 01.235-.112.328.328 0 01.1 0 .845.845 0 01.161.039 7.718 7.718 0 01.806.35l.065.032c.255.122.518.257.782.4a9.894 9.894 0 011.5 1.075l.087.072c.13.107.261.215.4.319.177.134.357.265.536.394l.017.012-.012-.006c.074.05.147.1.22.153l.186.131-.072-.119a11.595 11.595 0 00-.435-.7c-.222-.329-.461-.652-.691-.965-.109-.147-.218-.294-.325-.442a13.411 13.411 0 00-.449-.593c-.095-.113-.2-.218-.3-.321-.06-.06-.12-.119-.178-.181a.685.685 0 01-.076-.093.27.27 0 01-.013-.264.311.311 0 01.314-.154l.075.006a1.288 1.288 0 01.386.114 3.835 3.835 0 01.755.513c.161.129.314.265.463.4l.178.157a4.922 4.922 0 01.565.451c.119.105.23.222.338.334l.059.062c.113.118.234.255.379.43l.026.033a9.245 9.245 0 011.02 1.435 9.117 9.117 0 01.717 1.7 4.739 4.739 0 01.107.463 4.124 4.124 0 01.069.514 2.315 2.315 0 01-.01.439.342.342 0 01-.148.217.318.318 0 01-.212.047.312.312 0 01-.044-.009.567.567 0 01-.11-.046l-.045-.022a6.63 6.63 0 00-.518-.14l-.184-.045a9.537 9.537 0 01-.793-.237c-.224-.079-.446-.16-.668-.243l-.14-.051-.032-.012c-.147-.054-.3-.11-.444-.175s-.283-.132-.423-.2l-.752-.373a6.009 6.009 0 01-.812-.486c-.119-.086-.246-.18-.369-.283s-.241-.214-.348-.315q-.309-.292-.611-.592a4.67 4.67 0 01-.6-.689" fill="#534741"/></g></g></g><g data-name="グループ 1140"><g data-name="グループ 1139"><g data-name="グループ 1138" clip-path="url(#I)" opacity=".99"><path data-name="パス 14061" d="M.5 16.339a.262.262 0 010-.079.516.516 0 01.045-.16l.01-.026c.041-.1.086-.2.131-.306.115-.256.212-.469.324-.684a5.671 5.671 0 01.435-.676 5.47 5.47 0 01.478-.564c.025-.027.052-.051.079-.077l.049-.045a2.055 2.055 0 01.178-.15l.032-.025c.081-.063.164-.128.252-.186a5.769 5.769 0 01.645-.376l.067-.032c.1-.049.206-.1.311-.142s.234-.094.353-.139c.242-.09.5-.162.739-.227a8.494 8.494 0 011.555-.262 2.572 2.572 0 01.35 0h.03c.094.005.188.012.281.023.04 0 .079.009.117.016a7.161 7.161 0 01.718.16 5.149 5.149 0 01.633.223l.192.077c.132.053.268.107.4.171a3.093 3.093 0 01.549.371c.039.031.076.062.113.094a.494.494 0 01.124.18.365.365 0 01.027.095.684.684 0 01.192.394.412.412 0 01-.2.345.565.565 0 01-.263.08c-.059.007-.118.009-.178.012-.038 0-.077 0-.115.006L9 14.444c-.056.006-.113.01-.169.014a3.133 3.133 0 01-.388-.009 4.46 4.46 0 00-.257-.012c-.154 0-.31.006-.462.013l-.22.01a7.436 7.436 0 00-.671.06l-.2.026c-.133.018-.264.036-.4.048.277.036.506.078.721.127.481.108.962.24 1.427.368.236.065.472.13.707.184l.088.02c.21.049.427.1.638.155a3.994 3.994 0 01.452.151 1 1 0 01.16.075.318.318 0 01.145.169.272.272 0 010 .155l-.008.021v.03a.435.435 0 01-.032.2 1.348 1.348 0 01-.173.266 3.866 3.866 0 01-.5.523 3.589 3.589 0 01-.605.454 4.025 4.025 0 01-.747.331 6.568 6.568 0 01-.728.19c-.255.054-.518.1-.783.127a11.651 11.651 0 01-1.506.088 9.781 9.781 0 01-.984-.063 8.538 8.538 0 01-.575-.086c-.228-.041-.456-.1-.677-.153l-.049-.012a8.257 8.257 0 01-.695-.2 7.352 7.352 0 01-.664-.266c-.194-.089-.379-.19-.584-.3a5.166 5.166 0 01-.55-.348.576.576 0 01-.176-.19.277.277 0 01-.034-.2l.007-.022c0-.016-.007-.032-.01-.05" fill="#534741"/></g></g></g><g data-name="グループ 1143"><g data-name="グループ 1142"><g data-name="グループ 1141" clip-path="url(#J)" opacity=".99"><path data-name="パス 14062" d="M11.451 16.537a.812.812 0 01.131 0 .931.931 0 01.306.1c.123.062.245.124.365.189.094.049.185.1.274.158a.766.766 0 01.3.119c.168.093.334.187.5.285a4.9 4.9 0 01.936.757 13.793 13.793 0 011.256 1.473 2.388 2.388 0 01.472-1.642 1.863 1.863 0 01.678-.518 1.885 1.885 0 01.658-.112 3.319 3.319 0 01.573.011 2.1 2.1 0 01.664.185 1.254 1.254 0 01.167.1.944.944 0 01.178.168 1.234 1.234 0 01.155.223 1.148 1.148 0 01.1.211.5.5 0 01.172.164.373.373 0 01.05.178.167.167 0 01-.006.063c0 .008-.005.027-.014.031a.282.282 0 01-.208 0 .781.781 0 01-.2-.1 3.263 3.263 0 00-.342-.126 3.18 3.18 0 00-.311-.09 2.66 2.66 0 00-.479-.038c-.051 0-.1.007-.153.013a1.75 1.75 0 00-.317.072 1.683 1.683 0 00-.315.157 3.064 3.064 0 00-.473.423c-.023.028-.044.058-.066.086v.058a4.936 4.936 0 00.09.907c.052.306.1.611.169.914a7.253 7.253 0 00.214.71 2.082 2.082 0 01.008-.306c.007-.06.016-.119.027-.178a.833.833 0 01.219-.446 1.113 1.113 0 01.134-.113.662.662 0 01.095-.06.328.328 0 01.178-.025.311.311 0 01.044.008.458.458 0 01-.072.167.372.372 0 01-.07.073l-.085.081a.837.837 0 00-.073.1.823.823 0 00-.06.156 2.226 2.226 0 00-.041.5c0 .046 0 .092.007.137s.011.118.016.176c.01.1.024.2.036.3s.03.216.049.324c.015.091.036.18.057.27.1.188.191.376.293.56.119.217.239.433.354.651.068.131.13.264.189.4v.006l.009.014.006.009-.019-.03.019.032.008.015.05.084-.006-.009.015.024c.126.208.242.421.356.636.1.189.2.375.312.56s.223.355.335.533.227.359.346.536.252.372.365.569c.1.179.193.364.288.547.086.165.178.327.252.5.04.092.077.184.118.276s.083.173.125.259c.085.178.156.362.241.54.043.092.093.183.137.275a.444.444 0 01.02.392c-.015.026-.03.054-.064.059a.285.285 0 01-.129-.015.458.458 0 01-.23-.172c-.1-.136-.19-.279-.277-.424l.014.023-.046-.077-.012-.019-.015-.025.008.013-.024-.041-.006-.009-.022-.037v.007c0-.008-.009-.015-.014-.023l.015.025c-.1-.161-.206-.318-.3-.483-.015-.025-.029-.051-.043-.078s-.055-.07-.083-.1c-.059-.076-.116-.153-.178-.227s-.12-.144-.182-.215-.131-.139-.191-.212-.12-.15-.172-.23-.118-.185-.172-.28c-.091-.16-.167-.327-.258-.487s-.2-.293-.3-.44a3.239 3.239 0 01-.311-.584l-.134-.343c-.1-.114-.207-.226-.313-.338-.237-.253-.477-.5-.723-.746-.236-.227-.481-.444-.725-.662-.131-.117-.26-.235-.4-.344a3.122 3.122 0 00-.361-.243 2.876 2.876 0 00-.5-.2c-.042-.008-.083-.016-.126-.021a.515.515 0 01-.312-.159.217.217 0 01-.065-.157.32.32 0 01.133-.206.727.727 0 01.538-.095h.023a2.767 2.767 0 01.457.1 2.058 2.058 0 01.355.151 2.5 2.5 0 01.421.267c.1.08.2.166.3.253-.063-.117-.127-.232-.189-.349-.089-.163-.169-.33-.25-.5l-.12-.248-.059-.092c-.119-.183-.239-.365-.356-.549s-.236-.392-.346-.593L15.469 21a13.33 13.33 0 00-.327-.386c-.055-.057-.112-.112-.167-.167l-.255-.193c-.285-.213-.567-.428-.853-.637a4.098 4.098 0 00-.333-.222 1.423 1.423 0 00-.207-.093l-.115-.038c-.067-.022-.136-.039-.2-.058l-.182-.049a.344.344 0 01-.206-.177.361.361 0 01.263-.065h.03c.086.016.174.029.261.046.063.012.126.025.188.04-.416-.334-.838-.66-1.284-.954a5.028 5.028 0 00-.408-.224c-.115-.058-.236-.111-.349-.174a.787.787 0 01-.352-.388.555.555 0 01-.037-.161.658.658 0 01.005-.133.479.479 0 01.193-.3.59.59 0 01.321-.114" fill="#534741"/></g></g></g><g data-name="グループ 1149"><g data-name="グループ 1148"><g data-name="グループ 1147" clip-path="url(#K)" opacity=".99"><path data-name="パス 14064" d="M20.466 29.476l.013.022v.008-.006l.016.027-.018-.03-.014-.023.008.014-.009-.016" fill="#534741"/></g></g></g><g data-name="グループ 1152"><g data-name="グループ 1151"><g data-name="グループ 1150" clip-path="url(#L)" opacity=".99"><path data-name="パス 14065" d="M18.371 24.572c0 .012.014.023.019.034v-.007l.017.027a.6.6 0 01-.032-.055l.009.018-.009-.017" fill="#534741"/></g></g></g><g data-name="グループ 1158"><g data-name="グループ 1157"><g data-name="グループ 1156" clip-path="url(#M)" opacity=".99"><path data-name="パス 14067" d="M18.3 24.448l.015.025-.015-.023" fill="#534741"/></g></g></g><g data-name="グループ 1161"><g data-name="グループ 1160"><g data-name="グループ 1159" clip-path="url(#N)" opacity=".99"><path data-name="パス 14068" d="M20.54 29.6l-.021-.035.021.035" fill="#534741"/></g></g></g></g><path data-name="パス 14069" d="M26.345 31.8c-.8-1.085-.638-2.447.8-2.721 1.192-.338 2.2.93 2.346 2.124.169 3.489-2.885 3.556-5.377 2.457-3.808-1.664-6.352-5.347-9.624-7.9-3.394-2.649-8.983-3.85-12.5-.746-2.867 2.8-2.738 8.314 1.046 10.219 2.791 1.39 7.892.8 7.7-3.181a3.7 3.7 0 00-5.759-3.163.863.863 0 00.84 1.508c2.228-1.556 4.141 1.272 2.878 3.1-.57.716-2.006.91-3.238.826-4.319-.17-5.183-5.672-2.523-8.346 1.756-1.758 4.818-1.748 7.32-1.1 2.576.7 4.643 2.589 6.637 4.536 2.73 2.6 5.989 5.771 10.107 5.78 3.119.111 4.4-4.183 2.264-6.184a2.46 2.46 0 00-4.065.911 2.9 2.9 0 00.581 2.257.34.34 0 00.57-.37l-.007-.011" fill="#4d484a"/></g><path data-name="パス 14070" d="M1.51 45.927h213.615" fill="none" stroke="#4d484a" stroke-width="2"/><path data-name="線 138" fill="none" stroke="#4d484a" stroke-miterlimit="10" stroke-width=".75" d="M1.51 51.105h213.615"/></g></g></g></svg>