<svg xmlns="http://www.w3.org/2000/svg" width="25.274" height="23.87"><path data-name="Icon metro-shopping-basket2" d="M24.43 8.424H17.4l-2.544 2.544a3.371 3.371 0 01-5.753-2.381c0-.055.014-.108.015-.163H.843a.841.841 0 00-.842.842v3.37h25.273v-3.37a.843.843 0 00-.844-.842zm-10.715 1.4l7.1-7.1a.842.842 0 000-1.192L19.524.246a.847.847 0 00-1.193 0l-7.1 7.1a1.755 1.755 0 002.482 2.482zM3.964 22.846a1.411 1.411 0 001.3 1.024h14.744a1.411 1.411 0 001.3-1.024l2.138-8.805H1.825l2.138 8.805z" fill="#A28441" /></svg>